<svg
   fill="#000000"
   height="24"
   viewBox="0 0 24 24"
   width="24"
   id="svg3402"
   version="1.1">
  <path
     d="M-618-1464H782v3600H-618zM0 0h24v24H0z"
     fill="none"
     id="path3404" />
  <path
     d="M12 2C6.5 2 2 6.5 2 12s4.5 10 10 10 10-4.5 10-10S17.5 2 12 2zM4 12c0-4.4 3.6-8 8-8 1.8 0 3.5.6 4.9 1.7L5.7 16.9C4.6 15.5 4 13.8 4 12zm8 8c-1.8 0-3.5-.6-4.9-1.7L18.3 7.1C19.4 8.5 20 10.2 20 12c0 4.4-3.6 8-8 8z"
     id="path3406" />
  <rect
     style="fill:#000000;fill-opacity:1;fill-rule:evenodd;stroke:none;stroke-width:1px;stroke-linecap:butt;stroke-linejoin:miter;stroke-opacity:1"
     id="rect3426"
     width="26.183081"
     height="2.0553961"
     x="-12.978139"
     y="15.918118"
     ry="0"
     transform="matrix(0.70342613,-0.71076837,0.70342613,0.71076837,0,0)" />
</svg>
