<?xml version="1.0" encoding="utf-8"?>
<!-- Generator: Adobe Illustrator 21.1.0, SVG Export Plug-In . SVG Version: 6.00 Build 0)  -->
<svg version="1.1" id="Ebene_1" xmlns="http://www.w3.org/2000/svg"  x="0px" y="0px"
	 viewBox="0 0 406 156.6" style="enable-background:new 0 0 406 156.6;" xml:space="preserve">
<style type="text/css">
	.st0{display:none;}
	.st1{display:inline;}
	.st2{fill:#20C9A2;}
	.st3{fill:#34495E;}
	.st4{fill:#FFFFFF;}
	.st5{display:inline;fill:#20C9A2;}
	.st6{fill:#3498DB;}
	.st7{display:inline;fill:#3498DB;}
	.st8{fill:#A15FFF;}
	.st9{display:inline;fill:#A15FFF;}
</style>
<g id="V1" class="st0">
	<g class="st1">
		<polygon class="st2" points="-113.5,108.7 -137.9,78.7 -162.3,108.7 -162.3,49.3 -113.5,49.3 		"/>
	</g>
	<g class="st1">
		<path class="st2" d="M-136.7-11c-49.2,0-89.2,40-89.2,89.2s40,89.2,89.2,89.2s89.2-40,89.2-89.2S-87.5-11-136.7-11z M-136.7,150.2
			c-39.7,0-71.9-32.3-71.9-71.9c0-39.7,32.3-71.9,71.9-71.9s71.9,32.3,71.9,71.9S-97.1,150.2-136.7,150.2z"/>
	</g>
	<g class="st1">
		<g>
			<path class="st3" d="M8.5,107.6c-8.1,0-15.2-2.9-21-8.7c-5.8-5.8-8.7-12.8-8.7-21c0-8.1,2.9-15.2,8.7-21s12.8-8.7,21-8.7
				c8.1,0,15.2,2.9,21,8.7s8.7,12.9,8.7,21s-2.9,15.2-8.7,21C23.7,104.7,16.7,107.6,8.5,107.6z M8.5,56.4c-5.9,0-11,2.1-15.2,6.3
				s-6.4,9.4-6.4,15.3s2.1,11,6.4,15.2c4.2,4.2,9.3,6.4,15.2,6.4s11.1-2.1,15.3-6.4C28,89,30.1,83.9,30.1,78S28,66.9,23.8,62.7
				S14.4,56.4,8.5,56.4z"/>
			<path class="st4" d="M8.5,49.3c8,0,14.6,2.7,20.3,8.4c5.6,5.7,8.4,12.3,8.4,20.3s-2.7,14.6-8.4,20.3c-5.7,5.7-12.3,8.4-20.3,8.4
				s-14.6-2.8-20.3-8.4s-8.4-12.3-8.4-20.2c0-8,2.8-14.6,8.4-20.3C-6.1,52,0.5,49.3,8.5,49.3 M8.5,100.6c6.2,0,11.6-2.2,16-6.7
				c4.4-4.4,6.6-9.8,6.6-15.9c0-6.2-2.2-11.6-6.6-16s-9.8-6.6-16-6.6S-3.1,57.6-7.4,62c-4.4,4.4-6.7,9.8-6.7,16s2.2,11.6,6.6,15.9
				C-3,98.3,2.3,100.6,8.5,100.6 M8.5,47.3c-8.5,0-15.7,3-21.7,9s-9,13.2-9,21.7s3,15.7,9,21.7s13.2,9,21.7,9s15.7-3,21.7-9
				s9-13.2,9-21.7s-3-15.7-9-21.7S17,47.3,8.5,47.3L8.5,47.3z M8.5,98.6c-5.7,0-10.5-2-14.5-6.1c-4-4-6.1-8.9-6.1-14.5
				c0-5.7,2-10.5,6.1-14.6c4-4,8.9-6,14.5-6c5.7,0,10.5,2,14.6,6c4,4,6,8.9,6,14.6s-2,10.5-6,14.5C19,96.5,14.2,98.6,8.5,98.6
				L8.5,98.6z"/>
		</g>
		<g>
			<path class="st3" d="M72.5,107.6c-5.7,0-10.7-2.1-14.8-6.1c-4.1-4.1-6.1-9-6.1-14.8V52.3c0-1.1,0.4-2,1.2-2.8s1.7-1.2,2.8-1.2
				s2,0.4,2.8,1.2s1.2,1.7,1.2,2.8v34.4c0,3.6,1.3,6.6,3.8,9.2c2.5,2.5,5.6,3.8,9.2,3.8c3.5,0,6.6-1.3,9.1-3.8s3.8-5.6,3.8-9.2V52.3
				c0-1.1,0.4-2,1.2-2.8c0.8-0.8,1.7-1.2,2.8-1.2c1.1,0,2,0.4,2.8,1.2s1.2,1.7,1.2,2.8v34.4c0,5.7-2.1,10.7-6.1,14.8
				C83.2,105.6,78.2,107.6,72.5,107.6z"/>
			<path class="st4" d="M89.4,49.4c0.8,0,1.5,0.3,2.1,0.9s0.9,1.3,0.9,2.1v34.4c0,5.5-1.9,10.1-5.8,14.1s-8.5,5.8-14,5.8
				s-10.1-1.9-14.1-5.8c-3.9-3.9-5.8-8.5-5.8-14.1V52.4c0-0.8,0.3-1.5,0.9-2.1s1.3-0.9,2.1-0.9s1.5,0.3,2.1,0.9s0.9,1.3,0.9,2.1
				v34.4c0,3.8,1.4,7.2,4.1,9.9c2.7,2.7,6,4.1,9.9,4.1c3.8,0,7.1-1.4,9.8-4.1s4.1-6,4.1-9.9V52.4c0-0.8,0.3-1.5,0.9-2.1
				C87.9,49.6,88.6,49.4,89.4,49.4 M89.4,47.4c-1.4,0-2.5,0.5-3.5,1.5s-1.5,2.1-1.5,3.5v34.4c0,3.3-1.2,6.1-3.5,8.5
				c-2.3,2.3-5.1,3.5-8.4,3.5s-6.1-1.2-8.5-3.5c-2.3-2.3-3.5-5.2-3.5-8.5V52.4c0-1.4-0.5-2.5-1.5-3.5s-2.1-1.5-3.5-1.5
				S53,47.9,52,48.9s-1.5,2.1-1.5,3.5v34.4c0,6,2.1,11.2,6.4,15.5s9.4,6.4,15.5,6.4c6,0,11.2-2.1,15.4-6.4c4.3-4.3,6.4-9.4,6.4-15.5
				V52.4c0-1.4-0.5-2.5-1.5-3.5C91.9,47.8,90.8,47.4,89.4,47.4L89.4,47.4z"/>
		</g>
		<g>
			<path class="st3" d="M125.7,107.6c-1.1,0-2.1-0.4-2.8-1.2c-0.8-0.8-1.2-1.8-1.2-2.9V56.3H108c-1.1,0-2.1-0.4-2.9-1.2
				s-1.2-1.7-1.2-2.8s0.4-2.1,1.2-2.8c0.8-0.8,1.8-1.2,2.9-1.2h35.5c1.1,0,2,0.4,2.8,1.2s1.2,1.7,1.2,2.8s-0.4,2.1-1.2,2.8
				c-0.8,0.8-1.7,1.2-2.8,1.2h-13.7v47.2c0,1.1-0.4,2.1-1.2,2.9C127.8,107.3,126.9,107.6,125.7,107.6z"/>
			<path class="st4" d="M143.5,49.3c0.8,0,1.5,0.3,2.1,0.9s0.9,1.3,0.9,2.1c0,0.9-0.3,1.5-0.9,2.1s-1.3,0.9-2.1,0.9h-12.7h-2v2v46.2
				c0,0.9-0.3,1.6-0.9,2.2s-1.3,0.9-2.1,0.9c-0.9,0-1.5-0.3-2.1-0.9s-0.9-1.3-0.9-2.2V57.3v-2h-2h-12.7c-0.9,0-1.6-0.3-2.2-0.9
				s-0.9-1.3-0.9-2.1c0-0.9,0.3-1.5,0.9-2.1s1.3-0.9,2.2-0.9H143.5 M143.5,47.3H108c-1.4,0-2.6,0.5-3.6,1.5s-1.5,2.2-1.5,3.5
				c0,1.4,0.5,2.6,1.5,3.5c1,1,2.2,1.5,3.6,1.5h12.7v46.2c0,1.4,0.5,2.6,1.5,3.6s2.2,1.5,3.5,1.5c1.4,0,2.6-0.5,3.5-1.5
				c1-1,1.5-2.2,1.5-3.6V57.3h12.7c1.4,0,2.5-0.5,3.5-1.5s1.5-2.2,1.5-3.5c0-1.4-0.5-2.6-1.5-3.5C146.1,47.8,144.9,47.3,143.5,47.3
				L143.5,47.3z"/>
		</g>
		<path class="st2" d="M183.3,108.6c-8.4,0-15.6-3-21.6-8.9c-6-6-8.9-13.2-8.9-21.6s3-15.6,8.9-21.6c6-6,13.2-9,21.6-9
			c6.9,0,13.1,2.1,18.6,6.3c1.1,0.9,1.7,2,1.9,3.3c0.2,1.4-0.2,2.6-1,3.8c-0.9,1.1-2,1.8-3.3,1.9c-1.4,0.2-2.6-0.2-3.8-1
			c-3.6-2.8-7.8-4.2-12.4-4.2c-5.6,0-10.4,2-14.4,6s-6,8.8-6,14.4s2,10.4,6,14.4s8.8,6,14.4,6c5.3,0,9.9-1.8,13.8-5.3
			c1-0.9,2.2-1.4,3.6-1.3s2.6,0.6,3.5,1.7c0.9,1,1.4,2.2,1.3,3.6s-0.6,2.6-1.6,3.5C198,106,191.2,108.6,183.3,108.6z"/>
		<path class="st2" d="M242.4,108.6c-8.5,0-15.7-3-21.7-9s-9-13.2-9-21.7s3-15.7,9-21.7s13.2-9,21.7-9s15.7,3,21.7,9s9,13.2,9,21.7
			s-3,15.7-9,21.7S250.8,108.6,242.4,108.6z M242.4,57.4c-5.7,0-10.5,2-14.5,6s-6.1,8.9-6.1,14.6s2,10.5,6.1,14.5
			c4,4,8.9,6.1,14.5,6.1c5.7,0,10.5-2,14.6-6.1c4-4,6-8.9,6-14.5c0-5.7-2-10.5-6-14.6C252.9,59.4,248.1,57.4,242.4,57.4z"/>
		<path class="st2" d="M290.5,108.6c-1.4,0-2.6-0.5-3.5-1.5c-1-1-1.5-2.2-1.5-3.5V52.5c0-1.4,0.5-2.5,1.5-3.5s2.2-1.5,3.5-1.5
			l17.9-0.1c5.4,0,9.9,1.7,13.6,5.1c3.7,3.4,5.5,7.6,5.5,12.6c0,4.8-1.8,8.9-5.3,12.4c4.2,3.5,6.3,7.9,6.3,13.2
			c0,4.9-1.9,9.1-5.6,12.6s-8.2,5.3-13.5,5.3H290.5z M295.6,73.1h12.9c2.4,0,4.5-0.8,6.3-2.4s2.6-3.5,2.6-5.6s-0.9-3.9-2.6-5.4
			s-3.9-2.2-6.4-2.2l-12.9,0.1v15.5C295.5,73.1,295.6,73.1,295.6,73.1z M295.6,98.6h13.9c2.5,0,4.6-0.8,6.4-2.3s2.6-3.3,2.6-5.5
			c0-2.1-0.9-3.9-2.6-5.3c-1.7-1.5-3.9-2.2-6.4-2.2c-0.1,0-0.3,0-0.4,0c-0.2,0-0.5,0-0.7,0h-12.8V98.6z"/>
		<path class="st2" d="M382.2,65.1c0,3.8-1.2,7.2-3.5,10.2s-5.2,5.2-8.9,6.5l9.7,19.7c0.6,1.2,0.7,2.5,0.2,3.8
			c-0.4,1.3-1.3,2.3-2.5,2.9c-0.7,0.3-1.5,0.5-2.2,0.5c-2.1,0-3.6-0.9-4.5-2.8l-11.3-23h-8.7v20.4c0,1.4-0.5,2.6-1.5,3.5
			c-1,1-2.2,1.5-3.5,1.5c-1.4,0-2.6-0.5-3.5-1.5c-1-1-1.5-2.2-1.5-3.5V52.4c0-1.4,0.5-2.6,1.5-3.5c1-1,2.2-1.5,3.5-1.5h17.7
			c5.3,0,9.8,1.7,13.5,5.2C380.3,56,382.2,60.2,382.2,65.1z M363.5,72.8c2.4-0.1,4.4-0.9,6.2-2.4c1.7-1.5,2.5-3.3,2.5-5.4
			c0-2.2-0.9-4-2.6-5.5c-1.8-1.5-3.9-2.3-6.4-2.3h-12.6v15.5L363.5,72.8L363.5,72.8z"/>
		<path class="st2" d="M392.4,108.3c-1.3-0.5-2.2-1.5-2.7-2.7c-0.5-1.3-0.5-2.6,0-3.8l5.4-13l0,0l15.7-37.9c0.1-0.1,0.1-0.3,0.2-0.4
			l0.1-0.2c0.1-0.1,0.1-0.2,0.2-0.2c0,0,0-0.1,0.1-0.2s0.1-0.1,0.2-0.2c0,0,0-0.1,0.1-0.2s0.2-0.2,0.2-0.2s0.1-0.1,0.2-0.1
			c0.1-0.1,0.2-0.2,0.2-0.2s0,0,0.2-0.1c0.1-0.1,0.2-0.1,0.2-0.2l0.2-0.1c0.1-0.1,0.2-0.1,0.3-0.1s0.2-0.1,0.3-0.1
			c0.1-0.1,0.2-0.1,0.1-0.1s0,0,0.2-0.1c0.1,0,0.2-0.1,0.3-0.1c0,0,0.1,0,0.3-0.1h0.2c0.1,0,0.2,0,0.3,0h0.2c0,0,0.1,0,0.3,0
			c0.1,0,0.2,0,0.2,0c0.1,0,0.1,0,0.3,0h0.3h0.3h0.2c0.1,0,0.2,0,0.3,0.1c0.2,0,0.2,0,0.2,0c0.3,0.1,0.7,0.2,0.9,0.4
			c0,0,0,0,0.2,0.1c0.1,0.1,0.2,0.1,0.3,0.2l0.2,0.1c0.1,0.1,0.2,0.1,0.2,0.2c0,0,0.1,0,0.2,0.1s0.2,0.1,0.2,0.2c0,0,0,0.1,0.1,0.2
			s0.2,0.2,0.2,0.2l0.1,0.2c0.1,0.1,0.2,0.2,0.2,0.2s0,0.1,0.1,0.2s0.1,0.2,0.1,0.2c0.1,0.1,0.2,0.3,0.2,0.4l15.7,37.9l0,0l5.4,13
			c0.5,1.3,0.5,2.6,0,3.8c-0.5,1.3-1.5,2.2-2.7,2.7c-0.6,0.3-1.3,0.4-1.9,0.4c-2.3,0-3.8-1-4.7-3.1l-4.1-9.9h-24.7l-4.1,9.9
			c-0.9,2.1-2.4,3.1-4.7,3.1c-0.7,0-1,0-1,0S393,108.5,392.4,108.3z M423.7,85.6l-8.2-19.8l-8.2,19.8
			C407.3,85.6,423.7,85.6,423.7,85.6z"/>
	</g>
</g>
<g id="V1_x5F_e" class="st0">
	<rect x="-295.4" y="-293.1" class="st5" width="800" height="800"/>
	<g class="st1">
		<g>
			<polygon class="st4" points="188.1,216.9 100.2,109 12.3,216.9 12.3,2.8 188.1,2.8 			"/>
		</g>
		<g>
			<path class="st4" d="M104.3-214.1c-177.2,0-321.4,144.2-321.4,321.4s144.2,321.3,321.3,321.3c177.2,0,321.3-144.2,321.3-321.3
				S281.4-214.1,104.3-214.1z M104.3,366.3c-142.8,0-259.1-116.2-259.1-259.1c0-142.8,116.2-259.1,259.1-259.1
				S363.4-35.7,363.4,107.2C363.3,250.1,247.1,366.3,104.3,366.3z"/>
		</g>
	</g>
</g>
<g id="V2_1_">
	<g>
		<polygon class="st4" points="33.3,87.2 26.6,78.8 19.8,87.2 19.8,70.6 33.3,70.6 		"/>
	</g>
	<g>
		<g>
			<path class="st4" d="M26.7,103.9c-7.1,0-13.3-2.6-18.3-7.6c-5.1-5-7.6-11.2-7.6-18.3c0-7.1,2.6-13.3,7.6-18.3s11.2-7.6,18.3-7.6
				S40,54.7,45,59.7s7.6,11.2,7.6,18.3S50.1,91.3,45,96.3C40,101.3,33.8,103.9,26.7,103.9z M26.7,58.9c-5.2,0-9.7,1.9-13.4,5.6
				S7.7,72.8,7.7,78s1.9,9.8,5.6,13.5s8.2,5.6,13.4,5.6s9.8-1.9,13.5-5.6s5.6-8.2,5.6-13.4c0-5.2-1.9-9.8-5.6-13.5
				C36.5,60.8,31.9,58.9,26.7,58.9z"/>
		</g>
		<g>
			<path class="st4" d="M82.9,103.9c-5,0-9.3-1.8-12.9-5.3c-3.5-3.5-5.3-7.9-5.3-12.9V55.5c0-0.9,0.3-1.7,1-2.4s1.4-1,2.4-1
				c0.9,0,1.7,0.3,2.4,1s1,1.4,1,2.4v30.2c0,3.2,1.1,5.9,3.4,8.1c2.2,2.2,5,3.4,8.1,3.4s5.9-1.1,8.1-3.4c2.2-2.2,3.4-5,3.4-8.1V55.5
				c0-0.9,0.3-1.7,1-2.4s1.4-1,2.4-1c0.9,0,1.7,0.3,2.4,1c0.7,0.7,1,1.4,1,2.4v30.2c0,5-1.8,9.3-5.3,12.9
				C92.1,102.1,87.8,103.9,82.9,103.9z"/>
		</g>
		<g>
			<path class="st4" d="M129.5,103.9c-1,0-1.7-0.3-2.4-1c-0.7-0.7-1-1.5-1-2.4V58.9H114c-1,0-1.8-0.3-2.4-1c-0.7-0.7-1-1.4-1-2.4
				s0.3-1.7,1-2.4s1.5-1,2.4-1h31.1c0.9,0,1.7,0.3,2.4,1s1,1.4,1,2.4s-0.3,1.7-1,2.4s-1.5,1-2.4,1h-12.2v41.6c0,1-0.3,1.8-1,2.4
				C131.3,103.6,130.5,103.9,129.5,103.9z"/>
		</g>
		<path class="st6" d="M180,104.9c-7.4,0-13.7-2.6-18.9-7.8c-5.2-5.2-7.8-11.6-7.8-18.9c0-7.4,2.6-13.7,7.8-18.9s11.6-7.9,18.9-7.9
			c6.1,0,11.5,1.8,16.3,5.5c0.9,0.7,1.5,1.7,1.7,2.9c0.1,1.2-0.1,2.3-0.9,3.3c-0.7,1-1.7,1.5-2.9,1.7c-1.2,0.1-2.3-0.1-3.3-0.9
			c-3.2-2.5-6.8-3.7-10.9-3.7c-4.9,0-9.1,1.7-12.6,5.2s-5.2,7.7-5.2,12.7c0,4.9,1.7,9.1,5.2,12.6s7.7,5.2,12.6,5.2
			c4.6,0,8.7-1.5,12.1-4.6c0.9-0.8,2-1.2,3.2-1.2c1.2,0.1,2.2,0.5,3.1,1.5c0.8,0.9,1.2,2,1.2,3.2c-0.1,1.2-0.5,2.2-1.4,3.1
			C192.9,102.6,186.9,104.9,180,104.9z"/>
		<path class="st6" d="M231.8,104.9c-7.4,0-13.8-2.6-19-7.9c-5.3-5.2-7.9-11.6-7.9-19s2.6-13.8,7.9-19c5.2-5.2,11.6-7.9,19-7.9
			s13.8,2.6,19,7.9s7.9,11.6,7.9,19s-2.6,13.8-7.9,19C245.6,102.3,239.3,104.9,231.8,104.9z M231.8,59.9c-5,0-9.2,1.8-12.7,5.3
			c-3.5,3.5-5.3,7.8-5.3,12.8s1.8,9.2,5.3,12.7s7.8,5.3,12.7,5.3c5,0,9.2-1.8,12.8-5.3c3.5-3.5,5.3-7.8,5.3-12.7
			c0-5-1.8-9.2-5.3-12.8C241.1,61.7,236.8,59.9,231.8,59.9z"/>
		<path class="st6" d="M274.1,104.9c-1.2,0-2.3-0.4-3.1-1.3c-0.9-0.8-1.3-1.9-1.3-3.1V55.7c0-1.2,0.4-2.2,1.3-3.1
			c0.9-0.8,1.9-1.3,3.1-1.3l15.7-0.1c4.7,0,8.7,1.5,11.9,4.5s4.8,6.7,4.8,11c0,4.2-1.5,7.8-4.6,10.9c3.7,3,5.5,6.9,5.5,11.6
			c0,4.3-1.6,8-4.9,11.1s-7.2,4.6-11.8,4.6H274.1L274.1,104.9z M278.5,73.7h11.3c2.1,0,4-0.7,5.5-2.1s2.3-3,2.3-4.9
			s-0.8-3.4-2.3-4.7s-3.4-1.9-5.6-1.9l-11.3,0.1L278.5,73.7L278.5,73.7z M278.5,96.1h12.2c2.2,0,4.1-0.7,5.6-2s2.3-2.9,2.3-4.8
			c0-1.8-0.8-3.4-2.3-4.7c-1.5-1.3-3.4-1.9-5.6-1.9c-0.1,0-0.2,0-0.3,0c-0.2,0-0.4,0-0.6,0h-11.3L278.5,96.1L278.5,96.1z"/>
		<path class="st6" d="M354.5,66.7c0,3.3-1,6.3-3.1,9c-2,2.6-4.6,4.5-7.8,5.7l8.5,17.2c0.5,1.1,0.6,2.2,0.2,3.3
			c-0.4,1.1-1.1,2-2.2,2.5c-0.6,0.3-1.3,0.4-1.9,0.4c-1.8,0-3.1-0.8-3.9-2.5l-9.9-20.1h-7.6v17.9c0,1.2-0.4,2.2-1.3,3.1
			c-0.8,0.8-1.9,1.3-3.1,1.3s-2.2-0.4-3.1-1.3c-0.8-0.9-1.3-1.9-1.3-3.1V55.4c0-1.2,0.4-2.3,1.3-3.1c0.9-0.9,1.9-1.3,3.1-1.3h15.5
			c4.6,0,8.6,1.5,11.8,4.6C352.8,58.7,354.5,62.4,354.5,66.7z M338.1,73.5c2.1-0.1,3.9-0.8,5.4-2.1c1.5-1.3,2.2-2.9,2.2-4.7
			c0-1.9-0.8-3.5-2.3-4.8s-3.4-2-5.6-2h-11.1v13.6C326.7,73.5,338.1,73.5,338.1,73.5z"/>
		<path class="st6" d="M363.4,104.6c-1.1-0.5-1.9-1.3-2.4-2.4c-0.4-1.1-0.4-2.2,0-3.4l4.8-11.4l0,0l13.8-33.3c0-0.1,0.1-0.2,0.2-0.4
			l0.1-0.2c0.1-0.1,0.1-0.2,0.1-0.2s0-0.1,0.1-0.2s0.1-0.1,0.1-0.1s0-0.1,0.1-0.1c0.1-0.1,0.1-0.2,0.1-0.2l0.1-0.1
			c0.1-0.1,0.2-0.1,0.2-0.1s0,0,0.1-0.1s0.2-0.1,0.2-0.1l0.1-0.1c0.1-0.1,0.2-0.1,0.2-0.1s0.1-0.1,0.3-0.1c0.1-0.1,0.2-0.1,0.1-0.1
			s0,0,0.1-0.1c0.1,0,0.2,0,0.3-0.1c0,0,0.1,0,0.3-0.1h0.1c0,0,0.1,0,0.3,0h0.2c0,0,0.1,0,0.2,0s0.2,0,0.2,0s0.1,0,0.2,0h0.2h0.2
			h0.2c0,0,0.1,0,0.3,0.1c0.1,0,0.2,0,0.1,0c0.3,0.1,0.6,0.2,0.8,0.3c0,0,0,0,0.1,0.1s0.2,0.1,0.2,0.1l0.1,0.1
			c0.1,0.1,0.2,0.1,0.2,0.1s0.1,0,0.1,0.1c0.1,0.1,0.1,0.1,0.2,0.1c0,0,0,0.1,0.1,0.1c0.1,0.1,0.1,0.2,0.1,0.2l0.1,0.1
			c0.1,0.1,0.1,0.2,0.1,0.2s0,0.1,0.1,0.2s0.1,0.2,0.1,0.2c0.1,0.1,0.1,0.3,0.2,0.4l13.8,33.3l0,0l4.8,11.4c0.4,1.1,0.4,2.2,0,3.4
			c-0.5,1.1-1.3,1.9-2.4,2.4c-0.5,0.2-1.1,0.3-1.7,0.3c-2,0-3.3-0.9-4.1-2.7l-3.6-8.7h-21.7l-3.6,8.7c-0.7,1.8-2.1,2.7-4.1,2.7
			c-0.6,0-0.9,0-0.9,0S363.9,104.8,363.4,104.6z M390.8,84.7l-7.2-17.4l-7.2,17.4H390.8z"/>
	</g>
</g>
<g id="V2_x5F_e" class="st0">
	<rect x="-295.4" y="-293.1" class="st7" width="800" height="800"/>
	<g class="st1">
		<g>
			<polygon class="st4" points="188.1,216.9 100.2,109 12.3,216.9 12.3,2.8 188.1,2.8 			"/>
		</g>
		<g>
			<path class="st4" d="M104.3-214.1c-177.2,0-321.4,144.2-321.4,321.4s144.2,321.3,321.3,321.3c177.2,0,321.3-144.2,321.3-321.3
				S281.4-214.1,104.3-214.1z M104.3,366.3c-142.8,0-259.1-116.2-259.1-259.1c0-142.8,116.2-259.1,259.1-259.1
				S363.4-35.7,363.4,107.2C363.3,250.1,247.1,366.3,104.3,366.3z"/>
		</g>
	</g>
</g>
<g id="V3" class="st0">
	<g class="st1">
		<polygon class="st8" points="-78.3,105 -99.7,78.7 -121.1,105 -121.1,52.8 -78.3,52.8 		"/>
	</g>
	<g class="st1">
		<path class="st8" d="M-98.7,0C-141.9,0-177,35.1-177,78.3s35.1,78.3,78.3,78.3s78.3-35.1,78.3-78.3S-55.5,0-98.7,0z M-98.7,141.4
			c-34.8,0-63.1-28.3-63.1-63.1s28.3-63.1,63.1-63.1s63.1,28.3,63.1,63.1C-35.6,113-63.9,141.4-98.7,141.4z"/>
	</g>
	<g class="st1">
		<g>
			<path class="st3" d="M26.7,103.9c-7.1,0-13.3-2.6-18.3-7.6c-5.1-5-7.6-11.2-7.6-18.3c0-7.1,2.6-13.3,7.6-18.3s11.2-7.6,18.3-7.6
				S40,54.7,45,59.7s7.6,11.2,7.6,18.3S50.1,91.3,45,96.3C40,101.3,33.8,103.9,26.7,103.9z M26.7,58.9c-5.2,0-9.7,1.9-13.4,5.6
				S7.7,72.8,7.7,78s1.9,9.8,5.6,13.5s8.2,5.6,13.4,5.6s9.8-1.9,13.5-5.6s5.6-8.2,5.6-13.4c0-5.2-1.9-9.8-5.6-13.5
				C36.5,60.8,31.9,58.9,26.7,58.9z"/>
			<path class="st4" d="M26.7,53.1c6.9,0,12.7,2.4,17.6,7.3s7.3,10.7,7.3,17.6s-2.4,12.7-7.3,17.6s-10.7,7.3-17.6,7.3
				S14,100.5,9.1,95.6S1.8,84.9,1.8,78s2.4-12.7,7.3-17.6S19.8,53.1,26.7,53.1 M26.7,98.1c5.5,0,10.3-2,14.2-5.9s5.9-8.7,5.9-14.2
				s-2-10.3-5.9-14.2s-8.7-5.9-14.2-5.9s-10.3,2-14.2,5.9S6.6,72.5,6.6,78s2,10.3,5.9,14.2C16.5,96.1,21.2,98.1,26.7,98.1
				 M26.7,51.1c-7.4,0-13.8,2.6-19,7.9c-5.3,5.3-7.9,11.6-7.9,19s2.6,13.8,7.9,19c5.2,5.3,11.6,7.9,19,7.9s13.8-2.6,19-7.9
				c5.2-5.2,7.9-11.6,7.9-19S51,64.2,45.7,59C40.5,53.7,34.1,51.1,26.7,51.1L26.7,51.1z M26.7,96.1c-5,0-9.2-1.8-12.7-5.3
				S8.7,83,8.7,78.1c0-5,1.8-9.2,5.3-12.8c3.5-3.5,7.8-5.3,12.7-5.3c5,0,9.2,1.8,12.8,5.3c3.5,3.5,5.3,7.8,5.3,12.8
				s-1.8,9.2-5.3,12.7C36,94.3,31.7,96.1,26.7,96.1L26.7,96.1z"/>
		</g>
		<g>
			<path class="st3" d="M82.9,103.9c-5,0-9.3-1.8-12.9-5.3c-3.5-3.5-5.3-7.9-5.3-12.9V55.5c0-0.9,0.3-1.7,1-2.4s1.4-1,2.4-1
				c0.9,0,1.7,0.3,2.4,1s1,1.4,1,2.4v30.2c0,3.2,1.1,5.9,3.4,8.1c2.2,2.2,5,3.4,8.1,3.4s5.9-1.1,8.1-3.4c2.2-2.2,3.4-5,3.4-8.1V55.5
				c0-0.9,0.3-1.7,1-2.4s1.4-1,2.4-1c0.9,0,1.7,0.3,2.4,1c0.7,0.7,1,1.4,1,2.4v30.2c0,5-1.8,9.3-5.3,12.9
				C92.1,102.1,87.8,103.9,82.9,103.9z"/>
			<path class="st4" d="M97.7,53.2c0.7,0,1.2,0.2,1.7,0.7s0.7,1,0.7,1.7v30.2c0,4.8-1.6,8.8-5,12.2s-7.4,5-12.1,5
				c-4.8,0-8.8-1.6-12.2-5s-5-7.4-5-12.2V55.6c0-0.7,0.2-1.2,0.7-1.7s1-0.7,1.7-0.7s1.2,0.2,1.7,0.7s0.7,1,0.7,1.7v30.2
				c0,3.4,1.2,6.4,3.7,8.8c2.4,2.4,5.4,3.7,8.8,3.7s6.4-1.2,8.8-3.7c2.4-2.4,3.7-5.4,3.7-8.8V55.6c0-0.7,0.2-1.2,0.7-1.7
				C96.5,53.4,97,53.2,97.7,53.2 M97.7,51.2c-1.2,0-2.2,0.4-3.1,1.3c-0.8,0.8-1.3,1.9-1.3,3.1v30.2c0,2.9-1,5.4-3.1,7.4
				c-2,2-4.5,3.1-7.4,3.1s-5.4-1-7.4-3.1c-2-2-3.1-4.5-3.1-7.4V55.6c0-1.2-0.4-2.2-1.3-3.1c-0.8-0.8-1.9-1.3-3.1-1.3
				s-2.2,0.4-3.1,1.3c-0.8,0.8-1.3,1.9-1.3,3.1v30.2c0,5.3,1.9,9.8,5.6,13.6c3.7,3.7,8.3,5.6,13.6,5.6c5.3,0,9.8-1.9,13.5-5.6
				s5.6-8.3,5.6-13.6V55.6c0-1.2-0.4-2.2-1.3-3.1C99.9,51.6,98.9,51.2,97.7,51.2L97.7,51.2z"/>
		</g>
		<g>
			<path class="st3" d="M129.5,103.9c-1,0-1.7-0.3-2.4-1c-0.7-0.7-1-1.5-1-2.4V58.9H114c-1,0-1.8-0.3-2.4-1c-0.7-0.7-1-1.4-1-2.4
				s0.3-1.7,1-2.4s1.5-1,2.4-1h31.1c0.9,0,1.7,0.3,2.4,1s1,1.4,1,2.4s-0.3,1.7-1,2.4s-1.5,1-2.4,1h-12.2v41.6c0,1-0.3,1.8-1,2.4
				C131.3,103.6,130.5,103.9,129.5,103.9z"/>
			<path class="st4" d="M145.1,53.1c0.7,0,1.2,0.2,1.7,0.7s0.7,1,0.7,1.7s-0.2,1.2-0.7,1.7s-1,0.7-1.7,0.7h-11.2h-2v2v40.6
				c0,0.7-0.2,1.2-0.7,1.7s-1,0.7-1.7,0.7s-1.2-0.2-1.7-0.7s-0.7-1-0.7-1.7V59.9v-2h-2H114c-0.7,0-1.2-0.2-1.7-0.7s-0.7-1-0.7-1.7
				s0.2-1.2,0.7-1.7s1-0.7,1.7-0.7H145.1 M145.1,51.1H114c-1.2,0-2.3,0.4-3.1,1.3c-0.8,0.8-1.3,1.9-1.3,3.1s0.4,2.3,1.3,3.1
				c0.9,0.9,1.9,1.3,3.1,1.3h11.1v40.6c0,1.2,0.4,2.3,1.3,3.1c0.8,0.8,1.9,1.3,3.1,1.3s2.3-0.4,3.1-1.3c0.9-0.9,1.3-1.9,1.3-3.1
				V59.9h11.2c1.2,0,2.2-0.4,3.1-1.3c0.8-0.8,1.3-1.9,1.3-3.1s-0.4-2.3-1.3-3.1C147.3,51.5,146.3,51.1,145.1,51.1L145.1,51.1z"/>
		</g>
		<path class="st8" d="M180,104.9c-7.4,0-13.7-2.6-18.9-7.8c-5.2-5.2-7.8-11.6-7.8-18.9c0-7.4,2.6-13.7,7.8-18.9s11.6-7.9,18.9-7.9
			c6.1,0,11.5,1.8,16.3,5.5c0.9,0.7,1.5,1.7,1.7,2.9c0.1,1.2-0.1,2.3-0.9,3.3c-0.7,1-1.7,1.5-2.9,1.7c-1.2,0.1-2.3-0.1-3.3-0.9
			c-3.2-2.5-6.8-3.7-10.9-3.7c-4.9,0-9.1,1.7-12.6,5.2s-5.2,7.7-5.2,12.7c0,4.9,1.7,9.1,5.2,12.6s7.7,5.2,12.6,5.2
			c4.6,0,8.7-1.5,12.1-4.6c0.9-0.8,2-1.2,3.2-1.2c1.2,0.1,2.2,0.5,3.1,1.5c0.8,0.9,1.2,2,1.2,3.2c-0.1,1.2-0.5,2.2-1.4,3.1
			C192.9,102.6,186.9,104.9,180,104.9z"/>
		<path class="st8" d="M231.8,104.9c-7.4,0-13.8-2.6-19-7.9c-5.3-5.2-7.9-11.6-7.9-19s2.6-13.8,7.9-19c5.2-5.2,11.6-7.9,19-7.9
			s13.8,2.6,19,7.9s7.9,11.6,7.9,19s-2.6,13.8-7.9,19C245.6,102.3,239.3,104.9,231.8,104.9z M231.8,59.9c-5,0-9.2,1.8-12.7,5.3
			c-3.5,3.5-5.3,7.8-5.3,12.8s1.8,9.2,5.3,12.7s7.8,5.3,12.7,5.3c5,0,9.2-1.8,12.8-5.3c3.5-3.5,5.3-7.8,5.3-12.7
			c0-5-1.8-9.2-5.3-12.8C241.1,61.7,236.8,59.9,231.8,59.9z"/>
		<path class="st8" d="M274.1,104.9c-1.2,0-2.3-0.4-3.1-1.3c-0.9-0.8-1.3-1.9-1.3-3.1V55.7c0-1.2,0.4-2.2,1.3-3.1
			c0.9-0.8,1.9-1.3,3.1-1.3l15.7-0.1c4.7,0,8.7,1.5,11.9,4.5s4.8,6.7,4.8,11c0,4.2-1.5,7.8-4.6,10.9c3.7,3,5.5,6.9,5.5,11.6
			c0,4.3-1.6,8-4.9,11.1s-7.2,4.6-11.8,4.6H274.1L274.1,104.9z M278.5,73.7h11.3c2.1,0,4-0.7,5.5-2.1s2.3-3,2.3-4.9
			s-0.8-3.4-2.3-4.7s-3.4-1.9-5.6-1.9l-11.3,0.1L278.5,73.7L278.5,73.7z M278.5,96.1h12.2c2.2,0,4.1-0.7,5.6-2s2.3-2.9,2.3-4.8
			c0-1.8-0.8-3.4-2.3-4.7c-1.5-1.3-3.4-1.9-5.6-1.9c-0.1,0-0.2,0-0.3,0c-0.2,0-0.4,0-0.6,0h-11.3L278.5,96.1L278.5,96.1z"/>
		<path class="st8" d="M354.5,66.7c0,3.3-1,6.3-3.1,9c-2,2.6-4.6,4.5-7.8,5.7l8.5,17.2c0.5,1.1,0.6,2.2,0.2,3.3
			c-0.4,1.1-1.1,2-2.2,2.5c-0.6,0.3-1.3,0.4-1.9,0.4c-1.8,0-3.1-0.8-3.9-2.5l-9.9-20.1h-7.6v17.9c0,1.2-0.4,2.2-1.3,3.1
			c-0.8,0.8-1.9,1.3-3.1,1.3s-2.2-0.4-3.1-1.3c-0.8-0.9-1.3-1.9-1.3-3.1V55.4c0-1.2,0.4-2.3,1.3-3.1c0.9-0.9,1.9-1.3,3.1-1.3h15.5
			c4.6,0,8.6,1.5,11.8,4.6C352.8,58.7,354.5,62.4,354.5,66.7z M338.1,73.5c2.1-0.1,3.9-0.8,5.4-2.1c1.5-1.3,2.2-2.9,2.2-4.7
			c0-1.9-0.8-3.5-2.3-4.8s-3.4-2-5.6-2h-11.1v13.6C326.7,73.5,338.1,73.5,338.1,73.5z"/>
		<path class="st8" d="M363.4,104.6c-1.1-0.5-1.9-1.3-2.4-2.4c-0.4-1.1-0.4-2.2,0-3.4l4.8-11.4l0,0l13.8-33.3c0-0.1,0.1-0.2,0.2-0.4
			l0.1-0.2c0.1-0.1,0.1-0.2,0.1-0.2s0-0.1,0.1-0.2s0.1-0.1,0.1-0.1s0-0.1,0.1-0.1c0.1-0.1,0.1-0.2,0.1-0.2l0.1-0.1
			c0.1-0.1,0.2-0.1,0.2-0.1s0,0,0.1-0.1s0.2-0.1,0.2-0.1l0.1-0.1c0.1-0.1,0.2-0.1,0.2-0.1s0.1-0.1,0.3-0.1c0.1-0.1,0.2-0.1,0.1-0.1
			s0,0,0.1-0.1c0.1,0,0.2,0,0.3-0.1c0,0,0.1,0,0.3-0.1h0.1c0,0,0.1,0,0.3,0h0.2c0,0,0.1,0,0.2,0s0.2,0,0.2,0s0.1,0,0.2,0h0.2h0.2
			h0.2c0,0,0.1,0,0.3,0.1c0.1,0,0.2,0,0.1,0c0.3,0.1,0.6,0.2,0.8,0.3c0,0,0,0,0.1,0.1s0.2,0.1,0.2,0.1l0.1,0.1
			c0.1,0.1,0.2,0.1,0.2,0.1s0.1,0,0.1,0.1c0.1,0.1,0.1,0.1,0.2,0.1c0,0,0,0.1,0.1,0.1c0.1,0.1,0.1,0.2,0.1,0.2l0.1,0.1
			c0.1,0.1,0.1,0.2,0.1,0.2s0,0.1,0.1,0.2s0.1,0.2,0.1,0.2c0.1,0.1,0.1,0.3,0.2,0.4l13.8,33.3l0,0l4.8,11.4c0.4,1.1,0.4,2.2,0,3.4
			c-0.5,1.1-1.3,1.9-2.4,2.4c-0.5,0.2-1.1,0.3-1.7,0.3c-2,0-3.3-0.9-4.1-2.7l-3.6-8.7h-21.7l-3.6,8.7c-0.7,1.8-2.1,2.7-4.1,2.7
			c-0.6,0-0.9,0-0.9,0S363.9,104.8,363.4,104.6z M390.8,84.7l-7.2-17.4l-7.2,17.4H390.8z"/>
	</g>
</g>
<g id="V3_x5F_e" class="st0">
	<rect x="-295.4" y="-293.1" class="st9" width="800" height="800"/>
	<g class="st1">
		<g>
			<polygon class="st4" points="188.1,216.9 100.2,109 12.3,216.9 12.3,2.8 188.1,2.8 			"/>
		</g>
		<g>
			<path class="st4" d="M104.3-214.1c-177.2,0-321.4,144.2-321.4,321.4s144.2,321.3,321.3,321.3c177.2,0,321.3-144.2,321.3-321.3
				S281.4-214.1,104.3-214.1z M104.3,366.3c-142.8,0-259.1-116.2-259.1-259.1c0-142.8,116.2-259.1,259.1-259.1
				S363.4-35.7,363.4,107.2C363.3,250.1,247.1,366.3,104.3,366.3z"/>
		</g>
	</g>
</g>
</svg>
