<?xml version="1.0" encoding="utf-8"?>
<!-- Generator: Adobe Illustrator 21.1.0, SVG Export Plug-In . SVG Version: 6.00 Build 0)  -->
<svg version="1.1" id="Ebene_1" xmlns="http://www.w3.org/2000/svg"  x="0px" y="0px"
	 viewBox="0 0 405.2 156.6" style="enable-background:new 0 0 405.2 156.6;" xml:space="preserve">
<style type="text/css">
	.st0{display:none;}
	.st1{display:inline;}
	.st2{fill:#20C9A2;}
	.st3{fill:#34495E;}
	.st4{fill:#FFFFFF;}
	.st5{display:inline;fill:#20C9A2;}
	.st6{fill:#3498DB;}
	.st7{display:inline;fill:#3498DB;}
	.st8{fill:#A15FFF;}
	.st9{display:inline;fill:#A15FFF;}
</style>
<g id="V1" class="st0">
	<g class="st1">
		<polygon class="st2" points="-114.3,108.7 -138.7,78.7 -163.1,108.7 -163.1,49.3 -114.3,49.3 		"/>
	</g>
	<g class="st1">
		<path class="st2" d="M-137.5-11c-49.2,0-89.2,40-89.2,89.2s40,89.2,89.2,89.2s89.2-40,89.2-89.2S-88.3-11-137.5-11z M-137.5,150.2
			c-39.7,0-71.9-32.3-71.9-71.9c0-39.7,32.3-71.9,71.9-71.9s71.9,32.3,71.9,71.9S-97.9,150.2-137.5,150.2z"/>
	</g>
	<g class="st1">
		<g>
			<path class="st3" d="M7.7,107.6c-8.1,0-15.2-2.9-21-8.7c-5.8-5.8-8.7-12.8-8.7-21c0-8.1,2.9-15.2,8.7-21s12.8-8.7,21-8.7
				c8.1,0,15.2,2.9,21,8.7s8.7,12.9,8.7,21s-2.9,15.2-8.7,21C22.9,104.7,15.9,107.6,7.7,107.6z M7.7,56.4c-5.9,0-11,2.1-15.2,6.3
				s-6.4,9.4-6.4,15.3s2.1,11,6.4,15.2c4.2,4.2,9.3,6.4,15.2,6.4s11.1-2.1,15.3-6.4c4.2-4.2,6.3-9.3,6.3-15.2
				c0-5.9-2.1-11.1-6.3-15.3S13.6,56.4,7.7,56.4z"/>
			<path class="st4" d="M7.7,49.3c8,0,14.6,2.7,20.3,8.4c5.6,5.7,8.4,12.3,8.4,20.3S33.7,92.6,28,98.3c-5.7,5.7-12.3,8.4-20.3,8.4
				s-14.6-2.8-20.3-8.4S-21,86-21,78.1c0-8,2.8-14.6,8.4-20.3C-6.9,52-0.3,49.3,7.7,49.3 M7.7,100.6c6.2,0,11.6-2.2,16-6.7
				c4.4-4.4,6.6-9.8,6.6-15.9c0-6.2-2.2-11.6-6.6-16s-9.8-6.6-16-6.6S-3.9,57.6-8.2,62c-4.4,4.4-6.7,9.8-6.7,16s2.2,11.6,6.6,15.9
				C-3.8,98.3,1.5,100.6,7.7,100.6 M7.7,47.3c-8.5,0-15.7,3-21.7,9s-9,13.2-9,21.7s3,15.7,9,21.7s13.2,9,21.7,9s15.7-3,21.7-9
				s9-13.2,9-21.7s-3-15.7-9-21.7S16.2,47.3,7.7,47.3L7.7,47.3z M7.7,98.6c-5.7,0-10.5-2-14.5-6.1c-4-4-6.1-8.9-6.1-14.5
				c0-5.7,2-10.5,6.1-14.6c4-4,8.9-6,14.5-6c5.7,0,10.5,2,14.6,6c4,4,6,8.9,6,14.6s-2,10.5-6,14.5C18.2,96.5,13.4,98.6,7.7,98.6
				L7.7,98.6z"/>
		</g>
		<g>
			<path class="st3" d="M71.7,107.6c-5.7,0-10.7-2.1-14.8-6.1c-4.1-4.1-6.1-9-6.1-14.8V52.3c0-1.1,0.4-2,1.2-2.8s1.7-1.2,2.8-1.2
				s2,0.4,2.8,1.2s1.2,1.7,1.2,2.8v34.4c0,3.6,1.3,6.6,3.8,9.2c2.5,2.5,5.6,3.8,9.2,3.8c3.5,0,6.6-1.3,9.1-3.8s3.8-5.6,3.8-9.2V52.3
				c0-1.1,0.4-2,1.2-2.8c0.8-0.8,1.7-1.2,2.8-1.2c1.1,0,2,0.4,2.8,1.2s1.2,1.7,1.2,2.8v34.4c0,5.7-2.1,10.7-6.1,14.8
				C82.4,105.6,77.4,107.6,71.7,107.6z"/>
			<path class="st4" d="M88.6,49.4c0.8,0,1.5,0.3,2.1,0.9s0.9,1.3,0.9,2.1v34.4c0,5.5-1.9,10.1-5.8,14.1s-8.5,5.8-14,5.8
				s-10.1-1.9-14.1-5.8c-3.9-3.9-5.8-8.5-5.8-14.1V52.4c0-0.8,0.3-1.5,0.9-2.1s1.3-0.9,2.1-0.9s1.5,0.3,2.1,0.9s0.9,1.3,0.9,2.1
				v34.4c0,3.8,1.4,7.2,4.1,9.9c2.7,2.7,6,4.1,9.9,4.1c3.8,0,7.1-1.4,9.8-4.1s4.1-6,4.1-9.9V52.4c0-0.8,0.3-1.5,0.9-2.1
				C87.1,49.6,87.8,49.4,88.6,49.4 M88.6,47.4c-1.4,0-2.5,0.5-3.5,1.5s-1.5,2.1-1.5,3.5v34.4c0,3.3-1.2,6.1-3.5,8.5
				c-2.3,2.3-5.1,3.5-8.4,3.5s-6.1-1.2-8.5-3.5c-2.3-2.3-3.5-5.2-3.5-8.5V52.4c0-1.4-0.5-2.5-1.5-3.5s-2.1-1.5-3.5-1.5
				s-2.5,0.5-3.5,1.5s-1.5,2.1-1.5,3.5v34.4c0,6,2.1,11.2,6.4,15.5s9.4,6.4,15.5,6.4c6,0,11.2-2.1,15.4-6.4
				c4.3-4.3,6.4-9.4,6.4-15.5V52.4c0-1.4-0.5-2.5-1.5-3.5C91.1,47.8,90,47.4,88.6,47.4L88.6,47.4z"/>
		</g>
		<g>
			<path class="st3" d="M124.9,107.6c-1.1,0-2.1-0.4-2.8-1.2c-0.8-0.8-1.2-1.8-1.2-2.9V56.3h-13.7c-1.1,0-2.1-0.4-2.9-1.2
				s-1.2-1.7-1.2-2.8s0.4-2.1,1.2-2.8c0.8-0.8,1.8-1.2,2.9-1.2h35.5c1.1,0,2,0.4,2.8,1.2s1.2,1.7,1.2,2.8s-0.4,2.1-1.2,2.8
				c-0.8,0.8-1.7,1.2-2.8,1.2H129v47.2c0,1.1-0.4,2.1-1.2,2.9C127,107.3,126.1,107.6,124.9,107.6z"/>
			<path class="st4" d="M142.7,49.3c0.8,0,1.5,0.3,2.1,0.9s0.9,1.3,0.9,2.1c0,0.9-0.3,1.5-0.9,2.1s-1.3,0.9-2.1,0.9H130h-2v2v46.2
				c0,0.9-0.3,1.6-0.9,2.2s-1.3,0.9-2.1,0.9c-0.9,0-1.5-0.3-2.1-0.9s-0.9-1.3-0.9-2.2V57.3v-2h-2h-12.7c-0.9,0-1.6-0.3-2.2-0.9
				s-0.9-1.3-0.9-2.1c0-0.9,0.3-1.5,0.9-2.1s1.3-0.9,2.2-0.9H142.7 M142.7,47.3h-35.5c-1.4,0-2.6,0.5-3.6,1.5s-1.5,2.2-1.5,3.5
				c0,1.4,0.5,2.6,1.5,3.5c1,1,2.2,1.5,3.6,1.5h12.7v46.2c0,1.4,0.5,2.6,1.5,3.6s2.2,1.5,3.5,1.5c1.4,0,2.6-0.5,3.5-1.5
				c1-1,1.5-2.2,1.5-3.6V57.3h12.7c1.4,0,2.5-0.5,3.5-1.5s1.5-2.2,1.5-3.5c0-1.4-0.5-2.6-1.5-3.5C145.3,47.8,144.1,47.3,142.7,47.3
				L142.7,47.3z"/>
		</g>
		<path class="st2" d="M182.5,108.6c-8.4,0-15.6-3-21.6-8.9c-6-6-8.9-13.2-8.9-21.6s3-15.6,8.9-21.6c6-6,13.2-9,21.6-9
			c6.9,0,13.1,2.1,18.6,6.3c1.1,0.9,1.7,2,1.9,3.3c0.2,1.4-0.2,2.6-1,3.8c-0.9,1.1-2,1.8-3.3,1.9c-1.4,0.2-2.6-0.2-3.8-1
			c-3.6-2.8-7.8-4.2-12.4-4.2c-5.6,0-10.4,2-14.4,6s-6,8.8-6,14.4s2,10.4,6,14.4s8.8,6,14.4,6c5.3,0,9.9-1.8,13.8-5.3
			c1-0.9,2.2-1.4,3.6-1.3s2.6,0.6,3.5,1.7c0.9,1,1.4,2.2,1.3,3.6s-0.6,2.6-1.6,3.5C197.2,106,190.4,108.6,182.5,108.6z"/>
		<path class="st2" d="M241.6,108.6c-8.5,0-15.7-3-21.7-9s-9-13.2-9-21.7s3-15.7,9-21.7s13.2-9,21.7-9s15.7,3,21.7,9s9,13.2,9,21.7
			s-3,15.7-9,21.7S250,108.6,241.6,108.6z M241.6,57.4c-5.7,0-10.5,2-14.5,6S221,72.3,221,78s2,10.5,6.1,14.5c4,4,8.9,6.1,14.5,6.1
			c5.7,0,10.5-2,14.6-6.1c4-4,6-8.9,6-14.5c0-5.7-2-10.5-6-14.6C252.1,59.4,247.3,57.4,241.6,57.4z"/>
		<path class="st2" d="M289.7,108.6c-1.4,0-2.6-0.5-3.5-1.5c-1-1-1.5-2.2-1.5-3.5V52.5c0-1.4,0.5-2.5,1.5-3.5s2.2-1.5,3.5-1.5
			l17.9-0.1c5.4,0,9.9,1.7,13.6,5.1c3.7,3.4,5.5,7.6,5.5,12.6c0,4.8-1.8,8.9-5.3,12.4c4.2,3.5,6.3,7.9,6.3,13.2
			c0,4.9-1.9,9.1-5.6,12.6s-8.2,5.3-13.5,5.3H289.7z M294.8,73.1h12.9c2.4,0,4.5-0.8,6.3-2.4s2.6-3.5,2.6-5.6s-0.9-3.9-2.6-5.4
			s-3.9-2.2-6.4-2.2l-12.9,0.1v15.5C294.7,73.1,294.8,73.1,294.8,73.1z M294.8,98.6h13.9c2.5,0,4.6-0.8,6.4-2.3s2.6-3.3,2.6-5.5
			c0-2.1-0.9-3.9-2.6-5.3c-1.7-1.5-3.9-2.2-6.4-2.2c-0.1,0-0.3,0-0.4,0c-0.2,0-0.5,0-0.7,0h-12.8V98.6z"/>
		<path class="st2" d="M381.4,65.1c0,3.8-1.2,7.2-3.5,10.2s-5.2,5.2-8.9,6.5l9.7,19.7c0.6,1.2,0.7,2.5,0.2,3.8
			c-0.4,1.3-1.3,2.3-2.5,2.9c-0.7,0.3-1.5,0.5-2.2,0.5c-2.1,0-3.6-0.9-4.5-2.8l-11.3-23h-8.7v20.4c0,1.4-0.5,2.6-1.5,3.5
			c-1,1-2.2,1.5-3.5,1.5c-1.4,0-2.6-0.5-3.5-1.5c-1-1-1.5-2.2-1.5-3.5V52.4c0-1.4,0.5-2.6,1.5-3.5c1-1,2.2-1.5,3.5-1.5h17.7
			c5.3,0,9.8,1.7,13.5,5.2C379.5,56,381.4,60.2,381.4,65.1z M362.7,72.8c2.4-0.1,4.4-0.9,6.2-2.4c1.7-1.5,2.5-3.3,2.5-5.4
			c0-2.2-0.9-4-2.6-5.5c-1.8-1.5-3.9-2.3-6.4-2.3h-12.6v15.5L362.7,72.8L362.7,72.8z"/>
		<path class="st2" d="M391.6,108.3c-1.3-0.5-2.2-1.5-2.7-2.7c-0.5-1.3-0.5-2.6,0-3.8l5.4-13l0,0L410,50.9c0.1-0.1,0.1-0.3,0.2-0.4
			l0.1-0.2c0.1-0.1,0.1-0.2,0.2-0.2c0,0,0-0.1,0.1-0.2s0.1-0.1,0.2-0.2c0,0,0-0.1,0.1-0.2s0.2-0.2,0.2-0.2s0.1-0.1,0.2-0.1
			c0.1-0.1,0.2-0.2,0.2-0.2s0,0,0.2-0.1c0.1-0.1,0.2-0.1,0.2-0.2l0.2-0.1c0.1-0.1,0.2-0.1,0.3-0.1s0.2-0.1,0.3-0.1
			c0.1-0.1,0.2-0.1,0.1-0.1c-0.1,0,0,0,0.2-0.1c0.1,0,0.2-0.1,0.3-0.1c0,0,0.1,0,0.3-0.1h0.2c0.1,0,0.2,0,0.3,0h0.2c0,0,0.1,0,0.3,0
			c0.1,0,0.2,0,0.2,0c0.1,0,0.1,0,0.3,0h0.3h0.3h0.2c0.1,0,0.2,0,0.3,0.1c0.2,0,0.2,0,0.2,0c0.3,0.1,0.7,0.2,0.9,0.4
			c0,0,0,0,0.2,0.1c0.1,0.1,0.2,0.1,0.3,0.2l0.2,0.1c0.1,0.1,0.2,0.1,0.2,0.2c0,0,0.1,0,0.2,0.1c0.1,0.1,0.2,0.1,0.2,0.2
			c0,0,0,0.1,0.1,0.2s0.2,0.2,0.2,0.2L419,50c0.1,0.1,0.2,0.2,0.2,0.2s0,0.1,0.1,0.2s0.1,0.2,0.1,0.2c0.1,0.1,0.2,0.3,0.2,0.4
			l15.7,37.9l0,0l5.4,13c0.5,1.3,0.5,2.6,0,3.8c-0.5,1.3-1.5,2.2-2.7,2.7c-0.6,0.3-1.3,0.4-1.9,0.4c-2.3,0-3.8-1-4.7-3.1l-4.1-9.9
			h-24.7l-4.1,9.9c-0.9,2.1-2.4,3.1-4.7,3.1c-0.7,0-1,0-1,0S392.2,108.5,391.6,108.3z M422.9,85.6l-8.2-19.8l-8.2,19.8
			C406.5,85.6,422.9,85.6,422.9,85.6z"/>
	</g>
</g>
<g id="V1_x5F_e" class="st0">
	<rect x="-296.2" y="-293.1" class="st5" width="800" height="800"/>
	<g class="st1">
		<g>
			<polygon class="st4" points="187.3,216.9 99.4,109 11.5,216.9 11.5,2.8 187.3,2.8 			"/>
		</g>
		<g>
			<path class="st4" d="M103.5-214.1c-177.2,0-321.4,144.2-321.4,321.4s144.2,321.3,321.3,321.3c177.2,0,321.3-144.2,321.3-321.3
				S280.6-214.1,103.5-214.1z M103.5,366.3c-142.8,0-259.1-116.2-259.1-259.1c0-142.8,116.2-259.1,259.1-259.1
				S362.6-35.7,362.6,107.2C362.5,250.1,246.3,366.3,103.5,366.3z"/>
		</g>
	</g>
</g>
<g id="V2_1_">
	<g>
		<g>
			<path class="st3" d="M25.9,103.9c-7.1,0-13.3-2.6-18.3-7.6C2.5,91.3,0,85.1,0,78c0-7.1,2.6-13.3,7.6-18.3s11.2-7.6,18.3-7.6
				s13.3,2.6,18.3,7.6s7.6,11.2,7.6,18.3s-2.5,13.3-7.6,18.3C39.2,101.3,33,103.9,25.9,103.9z M25.9,58.9c-5.2,0-9.7,1.9-13.4,5.6
				S6.9,72.8,6.9,78s1.9,9.8,5.6,13.5s8.2,5.6,13.4,5.6s9.8-1.9,13.5-5.6S45,83.3,45,78.1c0-5.2-1.9-9.8-5.6-13.5
				C35.7,60.8,31.1,58.9,25.9,58.9z"/>
		</g>
		<g>
			<path class="st3" d="M82.1,103.9c-5,0-9.3-1.8-12.9-5.3c-3.5-3.5-5.3-7.9-5.3-12.9V55.5c0-0.9,0.3-1.7,1-2.4s1.4-1,2.4-1
				c0.9,0,1.7,0.3,2.4,1s1,1.4,1,2.4v30.2c0,3.2,1.1,5.9,3.4,8.1c2.2,2.2,5,3.4,8.1,3.4s5.9-1.1,8.1-3.4c2.2-2.2,3.4-5,3.4-8.1V55.5
				c0-0.9,0.3-1.7,1-2.4s1.4-1,2.4-1c0.9,0,1.7,0.3,2.4,1c0.7,0.7,1,1.4,1,2.4v30.2c0,5-1.8,9.3-5.3,12.9
				C91.3,102.1,87,103.9,82.1,103.9z"/>
		</g>
		<g>
			<path class="st3" d="M128.7,103.9c-1,0-1.7-0.3-2.4-1c-0.7-0.7-1-1.5-1-2.4V58.9h-12.1c-1,0-1.8-0.3-2.4-1c-0.7-0.7-1-1.4-1-2.4
				s0.3-1.7,1-2.4s1.5-1,2.4-1h31.1c0.9,0,1.7,0.3,2.4,1c0.7,0.7,1,1.4,1,2.4s-0.3,1.7-1,2.4s-1.5,1-2.4,1h-12.2v41.6
				c0,1-0.3,1.8-1,2.4C130.5,103.6,129.7,103.9,128.7,103.9z"/>
		</g>
		<path class="st6" d="M179.2,104.9c-7.4,0-13.7-2.6-18.9-7.8c-5.2-5.2-7.8-11.6-7.8-18.9c0-7.4,2.6-13.7,7.8-18.9
			c5.2-5.2,11.6-7.9,18.9-7.9c6.1,0,11.5,1.8,16.3,5.5c0.9,0.7,1.5,1.7,1.7,2.9c0.1,1.2-0.1,2.3-0.9,3.3c-0.7,1-1.7,1.5-2.9,1.7
			c-1.2,0.1-2.3-0.1-3.3-0.9c-3.2-2.5-6.8-3.7-10.9-3.7c-4.9,0-9.1,1.7-12.6,5.2s-5.2,7.7-5.2,12.7c0,4.9,1.7,9.1,5.2,12.6
			s7.7,5.2,12.6,5.2c4.6,0,8.7-1.5,12.1-4.6c0.9-0.8,2-1.2,3.2-1.2c1.2,0.1,2.2,0.5,3.1,1.5c0.8,0.9,1.2,2,1.2,3.2
			c-0.1,1.2-0.5,2.2-1.4,3.1C192.1,102.6,186.1,104.9,179.2,104.9z"/>
		<path class="st6" d="M231,104.9c-7.4,0-13.8-2.6-19-7.9c-5.3-5.2-7.9-11.6-7.9-19s2.6-13.8,7.9-19c5.2-5.2,11.6-7.9,19-7.9
			s13.8,2.6,19,7.9s7.9,11.6,7.9,19s-2.6,13.8-7.9,19C244.8,102.3,238.5,104.9,231,104.9z M231,59.9c-5,0-9.2,1.8-12.7,5.3
			C214.8,68.7,213,73,213,78s1.8,9.2,5.3,12.7S226.1,96,231,96c5,0,9.2-1.8,12.8-5.3c3.5-3.5,5.3-7.8,5.3-12.7c0-5-1.8-9.2-5.3-12.8
			C240.3,61.7,236,59.9,231,59.9z"/>
		<path class="st6" d="M273.3,104.9c-1.2,0-2.3-0.4-3.1-1.3c-0.9-0.8-1.3-1.9-1.3-3.1V55.7c0-1.2,0.4-2.2,1.3-3.1
			c0.9-0.8,1.9-1.3,3.1-1.3l15.7-0.1c4.7,0,8.7,1.5,11.9,4.5s4.8,6.7,4.8,11c0,4.2-1.5,7.8-4.6,10.9c3.7,3,5.5,6.9,5.5,11.6
			c0,4.3-1.6,8-4.9,11.1s-7.2,4.6-11.8,4.6H273.3L273.3,104.9z M277.7,73.7H289c2.1,0,4-0.7,5.5-2.1s2.3-3,2.3-4.9s-0.8-3.4-2.3-4.7
			s-3.4-1.9-5.6-1.9l-11.3,0.1L277.7,73.7L277.7,73.7z M277.7,96.1h12.2c2.2,0,4.1-0.7,5.6-2s2.3-2.9,2.3-4.8c0-1.8-0.8-3.4-2.3-4.7
			c-1.5-1.3-3.4-1.9-5.6-1.9c-0.1,0-0.2,0-0.3,0c-0.2,0-0.4,0-0.6,0h-11.3L277.7,96.1L277.7,96.1z"/>
		<path class="st6" d="M353.7,66.7c0,3.3-1,6.3-3.1,9c-2,2.6-4.6,4.5-7.8,5.7l8.5,17.2c0.5,1.1,0.6,2.2,0.2,3.3
			c-0.4,1.1-1.1,2-2.2,2.5c-0.6,0.3-1.3,0.4-1.9,0.4c-1.8,0-3.1-0.8-3.9-2.5l-9.9-20.1H326v17.9c0,1.2-0.4,2.2-1.3,3.1
			c-0.8,0.8-1.9,1.3-3.1,1.3s-2.2-0.4-3.1-1.3c-0.8-0.9-1.3-1.9-1.3-3.1V55.4c0-1.2,0.4-2.3,1.3-3.1c0.9-0.9,1.9-1.3,3.1-1.3h15.5
			c4.6,0,8.6,1.5,11.8,4.6C352,58.7,353.7,62.4,353.7,66.7z M337.3,73.5c2.1-0.1,3.9-0.8,5.4-2.1c1.5-1.3,2.2-2.9,2.2-4.7
			c0-1.9-0.8-3.5-2.3-4.8s-3.4-2-5.6-2h-11.1v13.6C325.9,73.5,337.3,73.5,337.3,73.5z"/>
		<path class="st6" d="M362.6,104.6c-1.1-0.5-1.9-1.3-2.4-2.4c-0.4-1.1-0.4-2.2,0-3.4l4.8-11.4l0,0l13.8-33.3c0-0.1,0.1-0.2,0.2-0.4
			l0.1-0.2c0.1-0.1,0.1-0.2,0.1-0.2s0-0.1,0.1-0.2s0.1-0.1,0.1-0.1s0-0.1,0.1-0.1c0.1-0.1,0.1-0.2,0.1-0.2l0.1-0.1
			c0.1-0.1,0.2-0.1,0.2-0.1s0,0,0.1-0.1s0.2-0.1,0.2-0.1l0.1-0.1c0.1-0.1,0.2-0.1,0.2-0.1s0.1-0.1,0.3-0.1c0.1-0.1,0.2-0.1,0.1-0.1
			c-0.1,0,0,0,0.1-0.1c0.1,0,0.2,0,0.3-0.1c0,0,0.1,0,0.3-0.1h0.1c0,0,0.1,0,0.3,0h0.2c0,0,0.1,0,0.2,0c0.1,0,0.2,0,0.2,0
			s0.1,0,0.2,0h0.2h0.2h0.2c0,0,0.1,0,0.3,0.1c0.1,0,0.2,0,0.1,0c0.3,0.1,0.6,0.2,0.8,0.3c0,0,0,0,0.1,0.1s0.2,0.1,0.2,0.1l0.1,0.1
			c0.1,0.1,0.2,0.1,0.2,0.1s0.1,0,0.1,0.1c0.1,0.1,0.1,0.1,0.2,0.1c0,0,0,0.1,0.1,0.1c0.1,0.1,0.1,0.2,0.1,0.2l0.1,0.1
			c0.1,0.1,0.1,0.2,0.1,0.2s0,0.1,0.1,0.2s0.1,0.2,0.1,0.2c0.1,0.1,0.1,0.3,0.2,0.4l13.8,33.3l0,0l4.8,11.4c0.4,1.1,0.4,2.2,0,3.4
			c-0.5,1.1-1.3,1.9-2.4,2.4c-0.5,0.2-1.1,0.3-1.7,0.3c-2,0-3.3-0.9-4.1-2.7l-3.6-8.7h-21.7l-3.6,8.7c-0.7,1.8-2.1,2.7-4.1,2.7
			c-0.6,0-0.9,0-0.9,0S363.1,104.8,362.6,104.6z M390,84.7l-7.2-17.4l-7.2,17.4H390z"/>
	</g>
</g>
<g id="V2_x5F_e" class="st0">
	<rect x="-296.2" y="-293.1" class="st7" width="800" height="800"/>
	<g class="st1">
		<g>
			<polygon class="st4" points="187.3,216.9 99.4,109 11.5,216.9 11.5,2.8 187.3,2.8 			"/>
		</g>
		<g>
			<path class="st4" d="M103.5-214.1c-177.2,0-321.4,144.2-321.4,321.4s144.2,321.3,321.3,321.3c177.2,0,321.3-144.2,321.3-321.3
				S280.6-214.1,103.5-214.1z M103.5,366.3c-142.8,0-259.1-116.2-259.1-259.1c0-142.8,116.2-259.1,259.1-259.1
				S362.6-35.7,362.6,107.2C362.5,250.1,246.3,366.3,103.5,366.3z"/>
		</g>
	</g>
</g>
<g id="V3" class="st0">
	<g class="st1">
		<polygon class="st8" points="-79.1,105 -100.5,78.7 -121.9,105 -121.9,52.8 -79.1,52.8 		"/>
	</g>
	<g class="st1">
		<path class="st8" d="M-99.5,0c-43.2,0-78.3,35.1-78.3,78.3s35.1,78.3,78.3,78.3s78.3-35.1,78.3-78.3S-56.3,0-99.5,0z M-99.5,141.4
			c-34.8,0-63.1-28.3-63.1-63.1s28.3-63.1,63.1-63.1s63.1,28.3,63.1,63.1C-36.4,113-64.7,141.4-99.5,141.4z"/>
	</g>
	<g class="st1">
		<g>
			<path class="st3" d="M25.9,103.9c-7.1,0-13.3-2.6-18.3-7.6C2.5,91.3,0,85.1,0,78c0-7.1,2.6-13.3,7.6-18.3s11.2-7.6,18.3-7.6
				s13.3,2.6,18.3,7.6s7.6,11.2,7.6,18.3s-2.5,13.3-7.6,18.3C39.2,101.3,33,103.9,25.9,103.9z M25.9,58.9c-5.2,0-9.7,1.9-13.4,5.6
				S6.9,72.8,6.9,78s1.9,9.8,5.6,13.5s8.2,5.6,13.4,5.6s9.8-1.9,13.5-5.6S45,83.3,45,78.1c0-5.2-1.9-9.8-5.6-13.5
				C35.7,60.8,31.1,58.9,25.9,58.9z"/>
			<path class="st4" d="M25.9,53.1c6.9,0,12.7,2.4,17.6,7.3s7.3,10.7,7.3,17.6s-2.4,12.7-7.3,17.6s-10.7,7.3-17.6,7.3
				s-12.7-2.4-17.6-7.3S1,84.9,1,78s2.4-12.7,7.3-17.6S19,53.1,25.9,53.1 M25.9,98.1c5.5,0,10.3-2,14.2-5.9S46,83.5,46,78
				s-2-10.3-5.9-14.2s-8.7-5.9-14.2-5.9s-10.3,2-14.2,5.9S5.8,72.5,5.8,78s2,10.3,5.9,14.2C15.7,96.1,20.4,98.1,25.9,98.1
				 M25.9,51.1c-7.4,0-13.8,2.6-19,7.9C1.6,64.3-1,70.6-1,78s2.6,13.8,7.9,19c5.2,5.3,11.6,7.9,19,7.9s13.8-2.6,19-7.9
				c5.2-5.2,7.9-11.6,7.9-19s-2.6-13.8-7.9-19C39.7,53.7,33.3,51.1,25.9,51.1L25.9,51.1z M25.9,96.1c-5,0-9.2-1.8-12.7-5.3
				S7.9,83,7.9,78.1c0-5,1.8-9.2,5.3-12.8C16.7,61.8,21,60,25.9,60c5,0,9.2,1.8,12.8,5.3c3.5,3.5,5.3,7.8,5.3,12.8
				s-1.8,9.2-5.3,12.7C35.2,94.3,30.9,96.1,25.9,96.1L25.9,96.1z"/>
		</g>
		<g>
			<path class="st3" d="M82.1,103.9c-5,0-9.3-1.8-12.9-5.3c-3.5-3.5-5.3-7.9-5.3-12.9V55.5c0-0.9,0.3-1.7,1-2.4s1.4-1,2.4-1
				c0.9,0,1.7,0.3,2.4,1s1,1.4,1,2.4v30.2c0,3.2,1.1,5.9,3.4,8.1c2.2,2.2,5,3.4,8.1,3.4s5.9-1.1,8.1-3.4c2.2-2.2,3.4-5,3.4-8.1V55.5
				c0-0.9,0.3-1.7,1-2.4s1.4-1,2.4-1c0.9,0,1.7,0.3,2.4,1c0.7,0.7,1,1.4,1,2.4v30.2c0,5-1.8,9.3-5.3,12.9
				C91.3,102.1,87,103.9,82.1,103.9z"/>
			<path class="st4" d="M96.9,53.2c0.7,0,1.2,0.2,1.7,0.7s0.7,1,0.7,1.7v30.2c0,4.8-1.6,8.8-5,12.2s-7.4,5-12.1,5
				c-4.8,0-8.8-1.6-12.2-5s-5-7.4-5-12.2V55.6c0-0.7,0.2-1.2,0.7-1.7s1-0.7,1.7-0.7s1.2,0.2,1.7,0.7s0.7,1,0.7,1.7v30.2
				c0,3.4,1.2,6.4,3.7,8.8c2.4,2.4,5.4,3.7,8.8,3.7s6.4-1.2,8.8-3.7c2.4-2.4,3.7-5.4,3.7-8.8V55.6c0-0.7,0.2-1.2,0.7-1.7
				C95.7,53.4,96.2,53.2,96.9,53.2 M96.9,51.2c-1.2,0-2.2,0.4-3.1,1.3c-0.8,0.8-1.3,1.9-1.3,3.1v30.2c0,2.9-1,5.4-3.1,7.4
				c-2,2-4.5,3.1-7.4,3.1s-5.4-1-7.4-3.1c-2-2-3.1-4.5-3.1-7.4V55.6c0-1.2-0.4-2.2-1.3-3.1c-0.8-0.8-1.9-1.3-3.1-1.3
				s-2.2,0.4-3.1,1.3c-0.8,0.8-1.3,1.9-1.3,3.1v30.2c0,5.3,1.9,9.8,5.6,13.6c3.7,3.7,8.3,5.6,13.6,5.6c5.3,0,9.8-1.9,13.5-5.6
				s5.6-8.3,5.6-13.6V55.6c0-1.2-0.4-2.2-1.3-3.1C99.1,51.6,98.1,51.2,96.9,51.2L96.9,51.2z"/>
		</g>
		<g>
			<path class="st3" d="M128.7,103.9c-1,0-1.7-0.3-2.4-1c-0.7-0.7-1-1.5-1-2.4V58.9h-12.1c-1,0-1.8-0.3-2.4-1c-0.7-0.7-1-1.4-1-2.4
				s0.3-1.7,1-2.4s1.5-1,2.4-1h31.1c0.9,0,1.7,0.3,2.4,1c0.7,0.7,1,1.4,1,2.4s-0.3,1.7-1,2.4s-1.5,1-2.4,1h-12.2v41.6
				c0,1-0.3,1.8-1,2.4C130.5,103.6,129.7,103.9,128.7,103.9z"/>
			<path class="st4" d="M144.3,53.1c0.7,0,1.2,0.2,1.7,0.7s0.7,1,0.7,1.7s-0.2,1.2-0.7,1.7s-1,0.7-1.7,0.7h-11.2h-2v2v40.6
				c0,0.7-0.2,1.2-0.7,1.7s-1,0.7-1.7,0.7s-1.2-0.2-1.7-0.7s-0.7-1-0.7-1.7V59.9v-2h-2h-11.1c-0.7,0-1.2-0.2-1.7-0.7s-0.7-1-0.7-1.7
				s0.2-1.2,0.7-1.7s1-0.7,1.7-0.7H144.3 M144.3,51.1h-31.1c-1.2,0-2.3,0.4-3.1,1.3c-0.8,0.8-1.3,1.9-1.3,3.1s0.4,2.3,1.3,3.1
				c0.9,0.9,1.9,1.3,3.1,1.3h11.1v40.6c0,1.2,0.4,2.3,1.3,3.1c0.8,0.8,1.9,1.3,3.1,1.3s2.3-0.4,3.1-1.3c0.9-0.9,1.3-1.9,1.3-3.1
				V59.9h11.2c1.2,0,2.2-0.4,3.1-1.3c0.8-0.8,1.3-1.9,1.3-3.1s-0.4-2.3-1.3-3.1C146.5,51.5,145.5,51.1,144.3,51.1L144.3,51.1z"/>
		</g>
		<path class="st8" d="M179.2,104.9c-7.4,0-13.7-2.6-18.9-7.8c-5.2-5.2-7.8-11.6-7.8-18.9c0-7.4,2.6-13.7,7.8-18.9
			c5.2-5.2,11.6-7.9,18.9-7.9c6.1,0,11.5,1.8,16.3,5.5c0.9,0.7,1.5,1.7,1.7,2.9c0.1,1.2-0.1,2.3-0.9,3.3c-0.7,1-1.7,1.5-2.9,1.7
			c-1.2,0.1-2.3-0.1-3.3-0.9c-3.2-2.5-6.8-3.7-10.9-3.7c-4.9,0-9.1,1.7-12.6,5.2s-5.2,7.7-5.2,12.7c0,4.9,1.7,9.1,5.2,12.6
			s7.7,5.2,12.6,5.2c4.6,0,8.7-1.5,12.1-4.6c0.9-0.8,2-1.2,3.2-1.2c1.2,0.1,2.2,0.5,3.1,1.5c0.8,0.9,1.2,2,1.2,3.2
			c-0.1,1.2-0.5,2.2-1.4,3.1C192.1,102.6,186.1,104.9,179.2,104.9z"/>
		<path class="st8" d="M231,104.9c-7.4,0-13.8-2.6-19-7.9c-5.3-5.2-7.9-11.6-7.9-19s2.6-13.8,7.9-19c5.2-5.2,11.6-7.9,19-7.9
			s13.8,2.6,19,7.9s7.9,11.6,7.9,19s-2.6,13.8-7.9,19C244.8,102.3,238.5,104.9,231,104.9z M231,59.9c-5,0-9.2,1.8-12.7,5.3
			C214.8,68.7,213,73,213,78s1.8,9.2,5.3,12.7S226.1,96,231,96c5,0,9.2-1.8,12.8-5.3c3.5-3.5,5.3-7.8,5.3-12.7c0-5-1.8-9.2-5.3-12.8
			C240.3,61.7,236,59.9,231,59.9z"/>
		<path class="st8" d="M273.3,104.9c-1.2,0-2.3-0.4-3.1-1.3c-0.9-0.8-1.3-1.9-1.3-3.1V55.7c0-1.2,0.4-2.2,1.3-3.1
			c0.9-0.8,1.9-1.3,3.1-1.3l15.7-0.1c4.7,0,8.7,1.5,11.9,4.5s4.8,6.7,4.8,11c0,4.2-1.5,7.8-4.6,10.9c3.7,3,5.5,6.9,5.5,11.6
			c0,4.3-1.6,8-4.9,11.1s-7.2,4.6-11.8,4.6H273.3L273.3,104.9z M277.7,73.7H289c2.1,0,4-0.7,5.5-2.1s2.3-3,2.3-4.9s-0.8-3.4-2.3-4.7
			s-3.4-1.9-5.6-1.9l-11.3,0.1L277.7,73.7L277.7,73.7z M277.7,96.1h12.2c2.2,0,4.1-0.7,5.6-2s2.3-2.9,2.3-4.8c0-1.8-0.8-3.4-2.3-4.7
			c-1.5-1.3-3.4-1.9-5.6-1.9c-0.1,0-0.2,0-0.3,0c-0.2,0-0.4,0-0.6,0h-11.3L277.7,96.1L277.7,96.1z"/>
		<path class="st8" d="M353.7,66.7c0,3.3-1,6.3-3.1,9c-2,2.6-4.6,4.5-7.8,5.7l8.5,17.2c0.5,1.1,0.6,2.2,0.2,3.3
			c-0.4,1.1-1.1,2-2.2,2.5c-0.6,0.3-1.3,0.4-1.9,0.4c-1.8,0-3.1-0.8-3.9-2.5l-9.9-20.1H326v17.9c0,1.2-0.4,2.2-1.3,3.1
			c-0.8,0.8-1.9,1.3-3.1,1.3s-2.2-0.4-3.1-1.3c-0.8-0.9-1.3-1.9-1.3-3.1V55.4c0-1.2,0.4-2.3,1.3-3.1c0.9-0.9,1.9-1.3,3.1-1.3h15.5
			c4.6,0,8.6,1.5,11.8,4.6C352,58.7,353.7,62.4,353.7,66.7z M337.3,73.5c2.1-0.1,3.9-0.8,5.4-2.1c1.5-1.3,2.2-2.9,2.2-4.7
			c0-1.9-0.8-3.5-2.3-4.8s-3.4-2-5.6-2h-11.1v13.6C325.9,73.5,337.3,73.5,337.3,73.5z"/>
		<path class="st8" d="M362.6,104.6c-1.1-0.5-1.9-1.3-2.4-2.4c-0.4-1.1-0.4-2.2,0-3.4l4.8-11.4l0,0l13.8-33.3c0-0.1,0.1-0.2,0.2-0.4
			l0.1-0.2c0.1-0.1,0.1-0.2,0.1-0.2s0-0.1,0.1-0.2s0.1-0.1,0.1-0.1s0-0.1,0.1-0.1c0.1-0.1,0.1-0.2,0.1-0.2l0.1-0.1
			c0.1-0.1,0.2-0.1,0.2-0.1s0,0,0.1-0.1s0.2-0.1,0.2-0.1l0.1-0.1c0.1-0.1,0.2-0.1,0.2-0.1s0.1-0.1,0.3-0.1c0.1-0.1,0.2-0.1,0.1-0.1
			c-0.1,0,0,0,0.1-0.1c0.1,0,0.2,0,0.3-0.1c0,0,0.1,0,0.3-0.1h0.1c0,0,0.1,0,0.3,0h0.2c0,0,0.1,0,0.2,0c0.1,0,0.2,0,0.2,0
			s0.1,0,0.2,0h0.2h0.2h0.2c0,0,0.1,0,0.3,0.1c0.1,0,0.2,0,0.1,0c0.3,0.1,0.6,0.2,0.8,0.3c0,0,0,0,0.1,0.1s0.2,0.1,0.2,0.1l0.1,0.1
			c0.1,0.1,0.2,0.1,0.2,0.1s0.1,0,0.1,0.1c0.1,0.1,0.1,0.1,0.2,0.1c0,0,0,0.1,0.1,0.1c0.1,0.1,0.1,0.2,0.1,0.2l0.1,0.1
			c0.1,0.1,0.1,0.2,0.1,0.2s0,0.1,0.1,0.2s0.1,0.2,0.1,0.2c0.1,0.1,0.1,0.3,0.2,0.4l13.8,33.3l0,0l4.8,11.4c0.4,1.1,0.4,2.2,0,3.4
			c-0.5,1.1-1.3,1.9-2.4,2.4c-0.5,0.2-1.1,0.3-1.7,0.3c-2,0-3.3-0.9-4.1-2.7l-3.6-8.7h-21.7l-3.6,8.7c-0.7,1.8-2.1,2.7-4.1,2.7
			c-0.6,0-0.9,0-0.9,0S363.1,104.8,362.6,104.6z M390,84.7l-7.2-17.4l-7.2,17.4H390z"/>
	</g>
</g>
<g id="V3_x5F_e" class="st0">
	<rect x="-296.2" y="-293.1" class="st9" width="800" height="800"/>
	<g class="st1">
		<g>
			<polygon class="st4" points="187.3,216.9 99.4,109 11.5,216.9 11.5,2.8 187.3,2.8 			"/>
		</g>
		<g>
			<path class="st4" d="M103.5-214.1c-177.2,0-321.4,144.2-321.4,321.4s144.2,321.3,321.3,321.3c177.2,0,321.3-144.2,321.3-321.3
				S280.6-214.1,103.5-214.1z M103.5,366.3c-142.8,0-259.1-116.2-259.1-259.1c0-142.8,116.2-259.1,259.1-259.1
				S362.6-35.7,362.6,107.2C362.5,250.1,246.3,366.3,103.5,366.3z"/>
		</g>
	</g>
</g>
</svg>
