<?xml version="1.0" encoding="UTF-8"?>
<svg width="473pt" version="1.1" xmlns="http://www.w3.org/2000/svg" height="135pt" viewBox="0 0 473 135">
 <defs>
  <clipPath id="Clip0">
   <path d="M0 0 L423.25 0 L423.25 91 L0 91 L0 0 Z" transform="translate(25.696, 22)"/>
  </clipPath>
  <clipPath id="Clip1">
   <path d="M0 0 L423.25 0 L423.25 91 L0 91 L0 0 Z" transform="translate(25.696, 22)"/>
  </clipPath>
 </defs>
 <g id="Background">
  <g id="Layer_1" clip-path="url(#Clip0)">
   <g id="Group6" clip-path="url(#Clip1)">
    <path style="fill:#818385; fill-rule:nonzero;stroke:none;" d="M65.554 41.6696 C62.1954 41.6696 58.9189 41.6626 55.6415 41.6757 C55.0283 41.6783 54.9901 41.1922 54.8383 40.8272 C53.8541 38.4569 52.8746 36.0843 51.9307 33.6973 C51.6839 33.0727 51.3608 32.8089 50.6436 32.8139 C45.8271 32.8477 41.0102 32.8454 36.194 32.8156 C35.5277 32.8112 35.2227 33.0441 34.9968 33.6375 C34.0828 36.035 33.1113 38.4111 32.1976 40.8091 C31.957 41.4417 31.6274 41.69 30.9132 41.6885 C20.9666 41.6637 11.0199 41.6634 1.07336 41.6877 C0.27545 41.6894 0 41.505 0.00117513 40.6615 C0.0267929 27.4779 0.0256178 14.2933 0.00399544 1.10918 C0.00235026 0.313941 0.198832 0.0219409 1.04398 0.0413142 C3.35311 0.0942991 5.66623 0.113206 7.97395 0.035012 C9.00713 0 9.28634 0.286865 9.28187 1.32439 C9.24074 11.4359 9.25743 21.5478 9.25743 31.6596 C9.25743 33.2168 9.25813 33.2174 10.8533 33.2174 C15.1998 33.2177 19.5473 33.1704 23.8925 33.25 C24.9978 33.2702 25.4563 32.8757 25.8646 31.9304 C30.3048 21.6454 34.7985 11.3829 39.2361 1.09658 C39.5892 0.278229 40.0108 0.00840289 40.8821 0.0392135 C42.7591 0.105503 44.6411 0.082395 46.5201 0.0469161 C47.1506 0.035012 47.5022 0.214274 47.766 0.818348 C53.6358 14.2574 59.5258 27.6875 65.4094 41.121 C65.4682 41.2547 65.4861 41.4058 65.554 41.6696 Z" transform="translate(313.013, 56.4957)"/>
    <path style="fill:#414142; fill-rule:nonzero;stroke:none;" d="M23.9432 20.0257 C28.1687 20.83 31.2207 22.8682 32.4546 26.8822 C33.6512 30.7732 33.1215 34.4646 30.1957 37.5153 C27.6998 40.1173 24.4118 41.1292 20.9379 41.5983 C17.1963 42.1034 13.4284 41.7757 9.67245 41.8346 C6.73558 41.8807 3.7973 41.8247 0.859956 41.8586 C0.19319 41.8659 0.0009401 41.6756 0.00211522 41.0107 C0.0199771 27.6686 0.0204472 14.3262 0.0009401 0.983837 C0 0.288499 0.252417 0.140982 0.886749 0.150085 C6.87706 0.235981 12.8704 0 18.8586 0.294101 C21.019 0.400304 23.1272 0.799907 25.1416 1.62175 C28.9565 3.17862 30.8473 6.05661 31.0344 10.0935 C31.2263 14.2419 29.4662 17.2887 25.7503 19.2043 C25.2351 19.4697 24.6945 19.6861 23.9432 20.0257 Z" transform="translate(111.597, 56.3305)"/>
    <path style="fill:#818385; fill-rule:nonzero;stroke:none;" d="M23.8315 19.8304 C33.7208 21.5586 34.7863 31.622 30.8588 36.5304 C28.6672 39.2693 25.614 40.5005 22.2804 41.1649 C20.4742 41.5249 18.6431 41.658 16.7951 41.6492 C11.5872 41.6244 6.37905 41.6171 1.17089 41.6617 C0.23244 41.6699 0 41.3919 0.00141015 40.4842 C0.0293781 27.3785 0.0235025 14.2721 0.0133964 1.1659 C0.0129264 0.480366 0.00987105 0 0.967127 0.00956997 C6.84016 0.0679234 12.7139 0.0401472 18.5869 0.104336 C20.6686 0.127211 22.7079 0.54222 24.667 1.26884 C28.7088 2.76782 30.8 5.66262 30.9451 9.93293 C31.0938 14.3076 29.1433 17.4808 25.2285 19.2303 C24.8431 19.403 24.4525 19.5643 23.8315 19.8304 Z" transform="translate(274.88, 56.5263)"/>
    <path style="fill:#414142; fill-rule:nonzero;stroke:none;" d="M9.34928 17.3519 C14.4096 11.9783 19.284 6.87354 24.0578 1.67777 C25.1258 0.515609 26.1752 0 27.7759 0.0653556 C31.003 0.197467 34.2401 0.104569 37.7585 0.104569 C36.7749 1.14162 35.9908 1.98121 35.1932 2.80866 C30.0776 8.11693 24.9697 13.4322 19.8278 18.7148 C19.249 19.3098 19.186 19.6242 19.7844 20.2768 C25.9535 27.0026 32.0814 33.7661 38.2203 40.5193 C38.5338 40.8642 38.844 41.212 39.1545 41.5565 C38.94 41.9729 38.584 41.7768 38.3166 41.778 C34.6362 41.7932 30.9554 41.7689 27.2751 41.8051 C26.5712 41.8118 26.143 41.5644 25.7009 41.0497 C20.3411 34.8103 14.9588 28.5905 9.57631 22.3593 C9.1582 22.5785 9.3615 22.9281 9.36103 23.187 C9.34646 28.9423 9.31073 34.698 9.38242 40.4525 C9.39699 41.6263 9.04657 41.8594 7.95276 41.8153 C5.76398 41.7258 3.5665 41.7357 1.37677 41.8115 C0.339846 41.8474 0 41.6114 0.00658069 40.4989 C0.0589912 31.8661 0.0354887 23.2328 0.0354887 14.5995 C0.0354887 10.1276 0.0599313 5.65536 0.0143365 1.18364 C0.00517054 0.298768 0.257822 0.0604539 1.13423 0.0837952 C3.40363 0.144716 5.67796 0.164556 7.94571 0.0784267 C9.04093 0.0368792 9.40004 0.274494 9.38195 1.44903 C9.3065 6.38664 9.34975 11.3259 9.34975 16.2647 C9.34928 16.5252 9.34928 16.7854 9.34928 17.3519 Z" transform="translate(232.974, 56.3855)"/>
    <path style="fill:#818385; fill-rule:nonzero;stroke:none;" d="M0.0307884 20.8235 C0.0307884 14.29 0.053351 7.75654 0.00705079 1.22332 C0 0.226177 0.308824 0.00583532 1.26303 0.00956993 C9.95595 0.0443484 18.6493 0.0487833 27.3418 0.0053685 C28.39 0 28.6833 0.284997 28.6415 1.30851 C28.5604 3.28855 28.5714 5.27583 28.6377 7.25681 C28.6697 8.20796 28.406 8.51934 27.4048 8.51093 C21.8057 8.46355 16.2058 8.51887 10.6065 8.46122 C9.54112 8.45025 9.28142 8.76255 9.32772 9.7674 C9.40904 11.5523 9.40105 13.3461 9.32913 15.1319 C9.2927 16.035 9.60764 16.2264 10.461 16.2206 C15.747 16.1839 21.0337 16.2297 26.3199 16.1776 C27.3237 16.1676 27.5662 16.4677 27.5329 17.418 C27.4607 19.4764 27.4661 21.5407 27.5314 23.5999 C27.5596 24.492 27.2673 24.707 26.4007 24.7007 C21.154 24.6626 15.9066 24.7058 10.6598 24.6603 C9.67344 24.6517 9.27343 24.8358 9.32302 25.9226 C9.4168 27.9794 9.39588 30.0449 9.32913 32.1036 C9.30022 33.0031 9.6074 33.2094 10.466 33.2047 C16.457 33.1709 22.4481 33.2033 28.4391 33.1691 C29.3219 33.1642 29.6726 33.3439 29.6386 34.3082 C29.5625 36.4445 29.5892 38.5858 29.6295 40.7238 C29.6427 41.427 29.4488 41.6578 28.7113 41.656 C19.4705 41.6321 10.2288 41.6274 0.987815 41.661 C0.0568763 41.6648 0.017627 41.2493 0.0197422 40.5386 C0.0380742 33.968 0.0307884 27.3957 0.0307884 20.8235 Z" transform="translate(419.273, 56.5251)"/>
    <path style="fill:#414142; fill-rule:nonzero;stroke:none;" d="M43.9575 41.7077 C40.6774 41.7077 37.5075 41.6891 34.3379 41.7232 C33.7033 41.7299 33.4695 41.4682 33.2562 40.9334 C32.292 38.5155 31.2584 36.1242 30.3095 33.7008 C30.0539 33.0472 29.7129 32.8547 29.0262 32.859 C24.2486 32.8888 19.4705 32.8908 14.6929 32.857 C13.989 32.8523 13.6614 33.0656 13.4148 33.7177 C12.5076 36.1151 11.5062 38.477 10.6081 40.8768 C10.3578 41.5467 10.0156 41.7322 9.33006 41.7232 C6.55017 41.6861 3.76911 41.6908 0.988989 41.7188 C0.261114 41.7261 0 41.6517 0.354654 40.84 C6.18964 27.4849 12.0016 14.1199 17.8023 0.750657 C18.0401 0.202603 18.3407 0 18.9424 0.0102702 C20.9782 0.0450487 23.0151 0.0375795 25.0514 0.0137714 C25.5835 0.00746922 25.8907 0.140281 26.1213 0.668029 C32.0334 14.2016 37.9655 27.7267 43.8896 41.2549 C43.9328 41.355 43.9246 41.4778 43.9575 41.7077 Z" transform="translate(145.064, 56.4668)"/>
    <path style="fill:#818385; fill-rule:nonzero;stroke:none;" d="M11.7625 33.1752 C18.5808 33.1752 25.154 33.2058 31.7263 33.1466 C32.8982 33.1361 33.281 33.4022 33.2146 34.6086 C33.1038 36.625 33.15 38.6519 33.202 40.6727 C33.2222 41.4611 32.9411 41.644 32.1943 41.6425 C21.7791 41.6218 11.3637 41.6224 0.94856 41.6425 C0.233615 41.644 0 41.4427 0.0126913 40.722 C0.0533506 38.4284 0.0498253 36.1331 0.0126913 33.8395 C0.0028203 33.2236 0.294016 32.8303 0.653369 32.4075 C7.26697 24.6222 13.8742 16.832 20.4829 9.04247 C20.6822 8.80742 20.8789 8.57027 21.1142 8.28924 C20.7001 7.94682 20.2598 8.09994 19.8697 8.09924 C13.9182 8.0871 7.96664 8.07123 2.0151 8.11068 C1.06819 8.11698 0.709305 7.90387 0.749729 6.89739 C0.829168 4.91734 0.796029 2.93145 0.761011 0.948829 C0.748084 0.251387 0.961722 0.00233414 1.69218 0.00396804 C11.637 0.0233414 21.5828 0.0249753 31.528 0.00186731 C32.318 0 32.5248 0.26866 32.5098 1.01138 C32.4681 3.03252 32.4681 5.05575 32.5101 7.07712 C32.5254 7.82591 32.308 8.39918 31.8268 8.97524 C25.3782 16.6947 18.9494 24.4301 12.5184 32.1639 C12.2996 32.4265 12.108 32.711 11.7625 33.1752 Z" transform="translate(380.023, 56.5384)"/>
    <path style="fill:#414142; fill-rule:nonzero;stroke:none;" d="M23.1013 45.6608 C18.1637 45.5698 13.9027 44.6735 10.0955 42.281 C2.72887 37.6524 0 30.7055 0.337496 22.361 C0.560769 16.8431 2.45789 11.9591 6.46554 8.00886 C12.7012 1.8624 23.902 0 31.8162 3.78736 C33.6691 4.67386 35.2899 5.87407 36.6712 7.40106 C37.0881 7.86228 37.0493 8.10433 36.5672 8.48526 C34.5448 10.0827 32.5474 11.712 30.5606 13.3531 C30.1652 13.6794 29.9287 13.7889 29.5256 13.33 C25.9108 9.21748 16.9634 9.01324 12.5409 15.2092 C9.10369 20.0247 9.10628 27.5093 12.5618 32.3417 C17.0708 38.6473 26.1644 38.5123 30.0074 33.1432 C30.3038 32.7297 30.5059 32.6889 30.9205 33.0017 C33.1335 34.6712 35.3557 36.3304 37.6069 37.9489 C38.193 38.3705 37.9721 38.6488 37.6481 39.0526 C34.9135 42.4642 31.2953 44.3811 27.0577 45.2532 C25.5966 45.5546 24.1105 45.6279 23.1013 45.6608 Z" transform="translate(190.16, 53.5965)"/>
    <path style="fill:#c22328; fill-rule:nonzero;stroke:none;" d="M21.6964 24.3896 C21.3128 25.5487 20.5555 26.4416 19.6462 27.2256 C18.8664 27.3414 18.771 26.6908 18.5816 26.2245 C17.4824 23.5194 16.259 20.8728 14.6757 18.414 C12.7985 15.4984 10.6619 12.8011 8.10579 10.4058 C5.87798 8.31839 3.55076 6.39576 0.964074 4.77751 C0.642794 3.30397 0.32128 1.8302 0 0.356656 C0.363819 0 0.722938 0.190465 1.06842 0.380464 C3.77991 1.87011 6.26977 3.67089 8.6534 5.63274 C14.1236 10.1348 18.0102 15.8042 21.0759 22.0933 C21.4341 22.8281 21.6642 23.5776 21.6964 24.3896 Z" transform="translate(58.2367, 68.6556)"/>
    <path style="fill:#c8222a; fill-rule:nonzero;stroke:none;" d="M0 0 C2.16458 0.578632 3.68261 2.15581 5.29394 3.52431 C9.96296 7.48861 13.6684 12.2264 16.3406 17.7329 C16.9143 18.9149 17.3818 20.1487 17.8805 21.3653 C18.0584 21.7992 18.1771 22.2597 18.6819 22.4481 C17.9479 23.343 17.0422 24.0159 15.9923 24.5031 C15.3166 24.4715 15.2569 23.8906 15.1023 23.4515 C13.5642 19.0872 11.4345 15.0311 8.48723 11.4513 C6.28364 8.77471 3.806 6.34161 0.969479 4.30858 C0.406829 3.90501 0.115867 3.48136 0.126444 2.77505 C0.138195 2.00922 0.270984 1.22986 0.037369 0.470328 C0.0249127 0.313708 0.0124563 0.156854 0 0 Z" transform="translate(59.2007, 73.4336)"/>
    <path style="fill:#d3242d; fill-rule:nonzero;stroke:none;" d="M15.6764 20.3852 C14.4682 21.0135 13.176 21.372 11.8316 21.5613 C11.2356 20.7652 11.0868 19.782 10.7244 18.8906 C8.63812 13.7579 5.55036 9.34028 1.38806 5.65094 C0.844681 5.16964 0 4.84893 0.0237376 3.90361 C0.503189 2.60256 0.982406 1.30151 1.46186 0 C2.14461 1.39581 3.56815 2.03887 4.6354 3.03998 C8.28911 6.46812 11.2838 10.347 13.4399 14.8803 C14.2954 16.6797 14.8606 18.5795 15.6764 20.3852 Z" transform="translate(57.513, 78.537)"/>
    <path style="fill:#a51f23; fill-rule:nonzero;stroke:none;" d="M25.8967 21.9301 C26.2556 22.8285 26.3943 23.7631 26.363 24.7257 C26.5654 25.4124 26.4143 26.1148 26.453 26.8092 C26.4655 27.0323 26.5141 27.3045 26.2387 27.417 C25.9365 27.54 25.7127 27.3537 25.5188 27.1537 C25.273 26.9 25.092 26.5979 24.9146 26.2952 C21.9443 21.2255 17.9618 17.0408 13.4413 13.3214 C9.89362 10.4025 6.05778 7.9566 1.77256 6.24101 C1.43647 6.10633 1.19275 5.85051 0.893566 5.67008 C0.411294 3.80511 0 1.93523 0.469816 0 C0.687684 0.150785 0.738684 0.381164 0.771588 0.619713 C0.804257 0.967499 0.802376 1.31902 0.777229 1.66587 C0.721058 2.44547 1.09639 2.9018 1.8057 3.16089 C6.28881 4.79735 10.296 7.27667 14.0898 10.1066 C17.9533 12.9888 21.3419 16.3562 24.2464 20.2003 C24.7265 20.8343 25.0791 21.6062 25.8967 21.9301 Z" transform="translate(55.2065, 56.8185)"/>
    <path style="fill:#db262f; fill-rule:nonzero;stroke:none;" d="M2.08068 0 C3.18694 1.07837 4.29062 2.15908 5.39971 3.23441 C9.32745 7.04209 11.9228 11.6665 13.7708 16.7439 C13.8733 17.0259 13.8522 17.3517 13.8886 17.6577 C13.5593 17.8935 13.1819 17.8778 12.8046 17.8622 C12.7301 17.8853 12.6554 17.9145 12.5783 17.9201 C9.88281 18.1248 9.87858 18.1264 8.8393 15.7029 C7.00916 11.4347 4.45138 7.69121 0.847501 4.69161 C0.435737 4.34849 0 3.97853 0.22868 3.33128 C0.592734 2.08205 1.40639 1.0793 2.08068 0 Z" transform="translate(55.4558, 82.4406)"/>
    <path style="fill:#9b1f21; fill-rule:nonzero;stroke:none;" d="M25.685 21.7973 C25.3259 22.7104 25.0727 21.8085 24.9616 21.6925 C23.9141 20.5983 23.0962 19.3187 22.1206 18.1577 C20.1859 15.8565 18.0145 13.8178 15.7486 11.8516 C12.4982 9.03124 8.85105 6.82034 5.0702 4.80715 C4.14608 4.31512 3.15803 3.93348 2.18033 3.54929 C0 2.69243 0.260408 2.96132 0.308588 0.596838 C0.690974 0 1.17019 0.380231 1.54482 0.543153 C4.93342 2.01483 8.39369 3.35392 11.3971 5.57111 C11.5846 5.70953 11.7672 5.86148 12.0274 5.76251 C15.1251 8.36017 18.3141 10.8568 21.1544 13.7422 C23.3928 16.0164 25.0927 18.6031 25.685 21.7973 Z" transform="translate(55.4182, 56.9513)"/>
    <path style="fill:#731313; fill-rule:nonzero;stroke:none;" d="M2.35307 13.3081 L2.31664 13.2259 L2.37305 13.1557 C2.58904 11.4447 2.55684 9.73288 2.39209 8.02056 C1.88114 5.30526 1.24046 2.6259 0 0.0751592 C0.632923 0 0.798616 0.429481 1.05315 0.675966 C4.42177 3.93745 7.34548 7.53622 9.59373 11.6658 C10.2563 12.8828 10.4201 14.2662 11.084 15.4669 C11.0048 16.1202 10.4835 15.994 10.1216 15.9155 C7.88604 15.4324 5.64413 15.0099 3.36744 14.7534 C2.61066 14.6682 2.05107 14.2319 2.35307 13.3081 Z" transform="translate(43.2136, 22)"/>
    <path style="fill:#ee2c39; fill-rule:nonzero;stroke:none;" d="M9.83205 0 C13.2364 1.01675 16.6997 1.65677 20.2688 1.68104 C21.2578 1.68758 21.8263 2.31336 22.0858 3.21247 C22.4882 4.60782 22.8626 6.01063 23.2489 7.41018 C23.2844 8.52216 22.6226 8.01145 22.2461 7.77267 C21.2263 7.12565 20.2566 6.4058 19.1783 5.84257 C13.5932 2.92747 7.90696 2.76642 2.11452 5.17618 C1.69265 5.35171 1.2924 5.67218 0.792505 5.39885 C0.388027 4.49274 0.13561 3.54508 0 2.56475 C3.04734 1.2525 6.1854 0.29947 9.53521 0.17506 C9.64685 0.171092 9.74203 0.0742255 9.83205 0 Z" transform="translate(26.3581, 87.2134)"/>
    <path style="fill:#ab1f24; fill-rule:nonzero;stroke:none;" d="M0 0 C2.61748 0.712145 4.91132 2.09535 7.20846 3.46129 C11.739 6.15535 15.6214 9.63718 19.1508 13.4913 C21.0844 15.6025 22.8762 17.8622 24.2309 20.415 C24.3214 20.5854 24.413 20.7677 24.5477 20.9012 C24.7747 21.1267 24.7876 21.6846 25.2528 21.5273 C25.6098 21.4061 25.4269 20.9797 25.4429 20.6891 C25.4727 20.1459 25.4626 19.6007 25.4695 19.0561 C25.8375 21.256 25.8295 23.4541 25.4382 25.6505 C24.4713 25.8849 24.3608 25.0133 24.1209 24.5122 C22.6821 21.5086 20.8004 18.7877 18.7066 16.2241 C14.6776 11.2914 9.88328 7.24072 4.23304 4.21451 C3.06943 3.5913 1.81628 3.12611 0.757016 2.3143 C0.360999 1.58931 0.209173 0.785437 0 0 Z" transform="translate(56.1003, 62.4879)"/>
    <path style="fill:#cf232e; fill-rule:nonzero;stroke:none;" d="M25.0497 3.54602 C25.2448 4.3513 25.1526 5.15097 24.9994 5.94924 C24.7672 7.1896 24.5846 7.29137 23.4003 6.79397 C18.441 4.71099 13.3163 3.4781 7.88533 3.70894 C5.89467 3.79344 3.89343 3.60997 1.91287 3.96966 C1.53378 4.03852 1.13353 4.10808 0.776994 3.85693 C0.319634 3.06635 0.173684 2.18265 0 1.30712 C1.09075 0.539885 2.39796 0.676899 3.61069 0.542686 C8.51191 0 13.3638 0.372061 18.1348 1.62246 C19.9499 2.09815 21.7337 2.68659 23.4663 3.40994 C23.9935 3.63005 24.499 3.75726 25.0497 3.54602 Z" transform="translate(28.5633, 70.0561)"/>
    <path style="fill:#cd222e; fill-rule:nonzero;stroke:none;" d="M14.2268 25.0187 C13.6423 24.9855 13.6021 24.4841 13.482 24.1034 C12.1673 19.9323 10.1456 16.1333 7.42163 12.704 C5.41287 10.1745 3.23724 7.80768 0.547609 5.96442 C0.0531157 5.6255 0 5.15237 0.0119863 4.63349 C0.214578 3.09553 0.324805 1.55243 0.275685 0 C0.721058 0.678767 0.435032 1.43339 0.481802 2.15044 C0.513765 2.63757 0.548549 3.07522 0.995332 3.37423 C4.58111 5.77628 7.52857 8.84824 10.0913 12.2593 C12.497 15.462 14.2924 19.0197 15.5648 22.8243 C15.7114 23.2632 15.8713 23.705 16.2308 24.0327 C15.6379 24.5124 14.9598 24.8212 14.2268 25.0187 Z" transform="translate(58.9627, 73.9035)"/>
    <path style="fill:#ba2328; fill-rule:nonzero;stroke:none;" d="M22.553 26.8071 C21.177 23.301 19.3656 20.0262 17.2144 16.9353 C13.9784 12.285 10.0264 8.36834 5.26856 5.23056 C4.13598 4.48364 2.94816 3.83288 1.83296 3.06682 C1.52343 2.85418 1.22566 2.73024 0.856667 2.77365 C0.571111 1.91469 0.285556 1.0562 0 0.197001 C0.547844 0 0.984991 0.291767 1.42731 0.527748 C6.17341 3.05982 10.4711 6.18266 14.1939 10.0678 C18.1075 14.1521 21.2486 18.7445 23.483 23.9368 C23.5293 24.0442 23.5902 24.1431 23.6645 24.2335 C23.5159 25.1863 23.0978 26.0237 22.553 26.8071 Z" transform="translate(57.38, 66.2382)"/>
    <path style="fill:#d4242d; fill-rule:nonzero;stroke:none;" d="M0 0.688803 C1.25621 0.426447 2.51524 0.186731 3.80788 0.209372 C7.58262 0.276128 11.3611 0 15.1093 0.867598 C17.7066 1.46887 20.2338 2.227 22.6539 3.30397 C23.4873 3.6751 23.9813 3.80581 24.2224 2.78066 C24.248 4.03759 23.8748 5.18762 23.276 6.27719 C22.8261 6.56802 22.439 6.28022 22.0698 6.10843 C19.0359 4.69791 15.8327 3.81818 12.5475 3.29066 C9.81043 2.85068 7.03783 2.69779 4.25819 3.00006 C3.22079 3.1128 2.1761 3.31424 1.13 3.03904 C0.583568 2.33647 0.200477 1.55593 0 0.688803 Z" transform="translate(29.3403, 73.2242)"/>
    <path style="fill:#e12731; fill-rule:nonzero;stroke:none;" d="M0.93305 0 C0.946917 0.53405 1.34811 0.830019 1.69923 1.11478 C5.81617 4.45797 8.51896 8.76888 10.3801 13.6454 C10.6276 14.2938 10.9322 14.5781 11.6377 14.5165 C12.2559 14.463 12.8841 14.5216 13.5083 14.5309 C10.5362 15.1037 7.84467 14.4287 5.38443 12.7269 C5.00956 12.3275 4.79217 11.8376 4.55691 11.3532 C3.72327 9.63671 2.54532 8.1578 1.28112 6.74238 C0.97512 6.39973 0.615531 6.10236 0.489088 5.636 C0 3.70801 0.0733279 1.82343 0.93305 0 Z" transform="translate(54.7515, 85.7718)"/>
    <path style="fill:#d92730; fill-rule:nonzero;stroke:none;" d="M0 0.599173 C2.99634 0.127444 5.98633 0 9.03014 0.252553 C11.6434 0.469861 14.1408 1.07067 16.6515 1.71652 C18.5703 2.20996 20.3323 3.08503 22.1457 3.83732 C21.8515 4.87531 21.1899 5.64161 20.3285 6.26062 C18.0868 5.38742 15.8999 4.28361 13.5391 3.84175 C11.7365 3.50447 9.94792 2.73304 8.02964 3.17022 C7.56758 3.27549 7.09988 3.1114 6.65333 2.96482 C6.1163 2.78836 5.58279 2.77575 5.04482 2.95642 C3.93033 3.33058 2.82336 3.16976 1.71827 2.90623 C1.00873 2.23774 0.423516 1.47797 0 0.599173 Z" transform="translate(30.4705, 75.6646)"/>
    <path style="fill:#c9222b; fill-rule:nonzero;stroke:none;" d="M25.0234 4.20798 C25.2805 4.63629 25.2741 5.10919 25.2584 5.58395 C25.4474 7.09064 25.2445 7.26476 23.7853 6.74775 C20.0519 5.42453 16.244 4.42085 12.2855 4.05206 C8.80781 3.72761 5.33954 3.81374 1.88232 4.31698 C1.35116 4.39424 0.810837 4.62275 0.294957 4.2584 C0 2.83831 0.0119863 1.41892 0.302243 0 C0.411059 0.0770265 0.489793 0.177628 0.539853 0.300403 C0.796031 1.80569 0.783809 1.70369 2.29714 1.52396 C4.97502 1.20581 7.66558 1.05456 10.3728 1.17174 C15.4289 1.39021 20.2785 2.5358 25.0234 4.20798 Z" transform="translate(28.1097, 65.6845)"/>
    <path style="fill:#b42028; fill-rule:nonzero;stroke:none;" d="M24.1879 25.6701 C23.2499 25.144 23.0997 24.1084 22.6945 23.2699 C21.0148 19.7928 18.8267 16.6683 16.3277 13.7313 C13.564 10.4833 10.4121 7.68141 6.88013 5.28495 C4.85139 3.90874 2.78293 2.6091 0.523166 1.63389 C0.270044 1.11408 0.0385441 0.587735 0 0 C3.25557 1.17267 6.13863 3.00193 8.92791 4.99622 C14.3192 8.85104 18.6396 13.6846 22.1159 19.2793 C22.6687 20.169 23.0828 21.1421 23.5864 22.0636 C23.8574 22.5592 24.0452 23.1432 24.6814 23.336 C24.7012 24.1525 24.4816 24.919 24.1879 25.6701 Z" transform="translate(56.8571, 64.8022)"/>
    <path style="fill:#c5222b; fill-rule:nonzero;stroke:none;" d="M24.7618 5.0324 C24.2769 5.60146 23.7958 5.10896 23.39 4.9549 C19.8549 3.61371 16.181 2.82991 12.4387 2.48562 C8.61509 2.13387 4.76913 2.04657 0.977705 2.93377 C0.337026 3.08386 0 2.84134 0.0618117 2.1481 C0.0926 1.80032 0.0944802 1.44996 0.109522 1.10101 C1.18335 0.438584 2.40337 0.385599 3.60764 0.300637 C6.45708 0.0996676 9.3157 0 12.1564 0.311374 C16.3223 0.768164 20.4639 1.38438 24.312 3.19006 C24.5898 3.7736 24.7526 4.38444 24.7618 5.0324 Z" transform="translate(28.3713, 64.8601)"/>
    <path style="fill:#b12025; fill-rule:nonzero;stroke:none;" d="M0 3.67019 C0.170863 2.76782 0.475691 1.91492 0.953498 1.12622 C3.01608 1.05596 5.08148 1.10241 7.14242 1.03379 C11.0652 0.903077 14.8931 1.51369 18.7028 2.32246 C19.8053 2.55635 20.4634 2.6308 20.3748 1.41682 C20.4406 0.902143 20.1988 0.271927 20.9111 0 C20.8822 1.80429 20.8388 3.61021 21.4336 5.35451 C21.0258 5.73684 20.5558 5.6129 20.1085 5.48288 C14.5652 3.87186 8.88372 3.69003 3.16744 3.84712 C2.421 3.86766 1.69829 4.0649 0.959138 4.09711 C0.6019 4.11275 0.0665122 4.3618 0 3.67019 Z" transform="translate(29.3476, 57.5697)"/>
    <path style="fill:#7a1617; fill-rule:nonzero;stroke:none;" d="M1.41556 0 C1.33823 0.997376 2.11358 1.18317 2.78811 1.20978 C5.01732 1.29755 7.16005 1.80942 9.30395 2.34254 C9.61724 2.42026 9.92183 2.47558 10.1463 2.15908 C10.7879 3.74185 11.0384 5.38135 10.8706 7.08177 C10.5082 7.35439 10.1291 7.20991 9.75496 7.12191 C6.92102 6.45482 4.06594 5.90023 1.17818 5.51463 C0.555835 5.43153 0 5.24597 0.23244 4.41572 C0.627047 2.94358 1.02118 1.47191 1.41556 0 Z" transform="translate(44.1511, 35.3081)"/>
    <path style="fill:#ef393f; fill-rule:nonzero;stroke:none;" d="M0.28438 3.92181 C0.14266 3.70661 0 3.49163 0.0357238 3.21527 C0.371339 2.48679 1.12271 2.35654 1.75305 2.10142 C6.93464 0 12.1113 0.121842 17.0915 2.59556 C22.2395 5.1533 25.6306 9.26722 27.1386 14.8449 C27.6603 16.7754 27.8218 18.7219 27.6255 20.7108 C27.5835 21.1365 27.3994 21.6596 27.9369 21.9689 C28.2389 22.031 28.5433 22.0382 28.8495 22.0338 C29.5923 22.0121 30.3332 22.0027 31.0756 22.0342 C31.4396 22.041 31.7942 22.0739 32.0424 22.3893 C30.0594 22.7111 28.0761 22.6943 26.0922 22.397 C25.9004 21.3711 26.0271 20.3231 26.0852 19.314 C26.2452 16.5285 25.3517 14.0431 24.1747 11.631 C22.5889 8.38141 20.0319 5.96582 16.8992 4.2647 C15.2538 3.37119 13.4194 2.66675 11.4624 2.59019 C10.6332 2.55751 9.91828 2.06781 9.06279 2.11519 C7.14828 2.22116 5.2984 2.6231 3.49176 3.22484 C2.68234 3.4942 1.80899 3.58383 1.07171 4.07587 C0.80637 4.25233 0.476395 4.32352 0.28438 3.92181 Z" transform="translate(27.4758, 90.2889)"/>
    <path style="fill:#dd2831; fill-rule:nonzero;stroke:none;" d="M0 0.738054 C1.88161 0.925718 3.71951 0 5.65565 0.655425 C6.64087 0.988973 7.74291 0.434616 8.85951 0.697206 C11.3362 1.27957 13.863 1.63973 16.1516 2.85581 C16.9604 3.28553 18.1628 2.94358 18.6102 4.09244 C17.8878 4.81299 17.0187 5.24877 16.0104 5.41519 C15.9335 5.43573 15.8482 5.46701 15.7822 5.44017 C11.6791 3.7792 7.40541 3.04395 2.98459 3.10323 C1.81016 2.53837 0.855022 1.70042 0 0.738054 Z" transform="translate(32.1888, 77.8328)"/>
    <path style="fill:#ee4043; fill-rule:nonzero;stroke:none;" d="M0 2.17308 C1.01131 2.17635 1.73402 1.36407 2.7686 1.28844 C3.94654 1.20208 4.95104 0.383032 6.26742 0.438117 C6.92925 0.465893 7.69684 0 8.48277 0.0683902 C10.7884 0.269126 13.062 0.685536 15.2054 1.5403 C18.7884 2.96949 21.5756 5.40959 23.5648 8.67855 C24.5439 10.2875 25.1183 12.0773 25.7127 13.8851 C26.285 15.6259 25.747 17.3144 26.2025 18.9842 C26.3346 19.4679 25.9531 20.0892 25.8072 20.648 C25.5764 20.6321 25.3458 20.6163 25.115 20.6004 C24.5623 20.3268 24.6885 19.8481 24.7289 19.3831 C25.3578 12.1718 21.4439 5.53727 14.7072 2.82314 C10.371 1.07604 5.95272 1.18014 1.64612 3.15435 C1.27149 3.32591 0.912603 3.65245 0.458769 3.33618 C0.220924 2.98139 0.0486502 2.60139 0 2.17308 Z" transform="translate(27.7602, 92.0376)"/>
    <path style="fill:#921b1f; fill-rule:nonzero;stroke:none;" d="M0 2.45574 C0.773703 1.52769 1.65622 0.714946 2.63134 0 C4.91602 0.387933 7.25359 0.306005 9.53028 0.711678 C12.0034 1.15236 14.5666 1.13182 16.9406 2.09535 C16.6294 2.87379 16.3183 3.65199 16.0069 4.43042 C15.577 5.13533 14.9128 4.92246 14.3262 4.79595 C11.5816 4.20331 8.80311 3.84829 6.019 3.50587 C4.49979 3.31914 2.98012 3.46712 1.46726 3.35018 C0.865598 3.30374 0.065102 3.43305 0 2.45574 Z" transform="translate(35.4418, 48.4656)"/>
    <path style="fill:#9c1e20; fill-rule:nonzero;stroke:none;" d="M18.5978 2.37942 C18.4455 3.07966 18.2932 3.77967 18.1407 4.47967 C17.6527 4.81182 17.1561 4.59755 16.6772 4.47664 C12.6885 3.47109 8.6031 3.24608 4.524 2.96692 C3.46568 2.89433 2.42875 3.15785 1.38007 3.16579 C0.869594 3.16952 0.166398 3.3929 0 2.55051 C0.391082 1.68314 0.965484 0.942524 1.61086 0.250686 C2.25601 0 2.92371 0.158254 3.57708 0.169692 C8.16995 0.248119 12.7473 0.487367 17.2311 1.60425 C17.7674 1.738 18.3012 1.84373 18.5978 2.37942 Z" transform="translate(32.1665, 52.6145)"/>
    <path style="fill:#cc222b; fill-rule:nonzero;stroke:none;" d="M0.0540558 0.896775 C3.72985 0.0583534 7.47756 0 11.1947 0.23318 C15.5084 0.503706 19.6862 1.60542 23.7495 3.08176 C24.9569 3.52034 24.9491 3.54135 25.0173 2.22186 C25.3169 2.97696 25.2826 3.76706 25.2622 4.55553 C25.2779 5.59586 24.6107 5.19555 24.1761 5.00415 C21.6014 3.86976 18.9231 3.06449 16.1824 2.45154 C14.5135 2.07831 12.8023 2.01833 11.1129 1.80125 C7.44043 1.32952 3.83538 1.93967 0.212463 2.31663 C0 1.86124 0.0401893 1.37737 0.0540558 0.896775 Z" transform="translate(28.3506, 69.0461)"/>
    <path style="fill:#7e161a; fill-rule:nonzero;stroke:none;" d="M1.84495 0 C1.89383 0.491335 2.12933 0.753692 2.66143 0.801542 C5.99644 1.10031 9.2513 1.82529 12.4829 2.66628 C12.5823 3.72248 12.4281 4.73689 11.9741 5.70159 C11.7186 6.14881 11.3075 6.05825 10.9362 5.95438 C7.76524 5.06671 4.49674 4.71052 1.26162 4.16923 C0.732339 4.08077 0 4.07587 0.242076 3.16299 C0.776289 2.10842 1.3105 1.0541 1.84495 0 Z" transform="translate(42.5389, 39.7236)"/>
    <path style="fill:#8a1a1d; fill-rule:nonzero;stroke:none;" d="M14.3093 4.72499 C13.6829 4.89025 13.0991 4.69535 12.5036 4.53733 C11.5762 4.29131 10.6152 4.21358 9.67717 4.0614 C7.73069 3.74535 5.71723 3.82588 3.82833 3.15365 C3.44665 3.0178 3.07249 3.16952 2.68775 3.23581 C1.7225 3.402 0.768063 3.3866 0 2.62987 C0.852437 1.7534 1.70487 0.876701 2.55731 0 C6.07634 0.497638 9.6217 0.831419 13.0961 1.60822 C13.8712 1.78141 14.7596 1.79285 15.2386 2.61773 C15.0228 3.36115 14.7044 4.05976 14.3093 4.72499 Z" transform="translate(38.0731, 45.8357)"/>
    <path style="fill:#83181a; fill-rule:nonzero;stroke:none;" d="M12.6813 5.56715 C10.2624 4.57024 7.64114 4.49788 5.13178 3.92065 C3.79636 3.61347 2.42358 3.87046 1.10274 3.48953 C0.687919 3.37002 0.265814 3.33968 0 2.94965 C0.716592 1.96651 1.43342 0.983371 2.15001 0 C2.18244 0.489235 2.49127 0.612711 2.93476 0.677133 C5.50476 1.05129 8.07758 1.41215 10.634 1.86521 C11.7195 2.05754 12.7254 2.65438 13.882 2.53884 C13.6594 3.61744 13.1981 4.60315 12.6813 5.56715 Z" transform="translate(40.6307, 42.8863)"/>
    <path style="fill:#a41e23; fill-rule:nonzero;stroke:none;" d="M1.20709 0.21334 C1.80899 0.779601 2.57188 0.572097 3.20692 0.461692 C5.86482 0 8.47454 0.539185 11.1007 0.705376 C13.9008 0.88277 16.6396 1.43129 19.3478 2.1425 C19.3318 2.30076 19.3156 2.45924 19.2993 2.6175 C18.9221 3.03064 19.1825 3.55022 19.0643 4.00654 C18.7066 4.27964 18.3101 4.17553 17.94 4.07984 C12.6672 2.71903 7.28907 2.62403 1.89125 2.72487 C1.24845 2.73677 0.549019 2.88569 0 2.35701 C0.272864 1.57064 0.672877 0.85476 1.20709 0.21334 Z" transform="translate(30.9594, 54.9517)"/>
    <path style="fill:#ee4747; fill-rule:nonzero;stroke:none;" d="M0 2.09932 C1.36385 1.57881 2.63393 0.885571 4.11083 0.570463 C6.78612 0 9.3761 0.00770265 12.0507 0.580033 C15.2271 1.2595 17.8629 2.81964 20.0176 5.11759 C23.5625 8.89889 25.1874 13.3851 24.4739 18.5907 C24.4325 18.8923 24.5489 19.1173 24.6563 19.3635 C24.1702 19.382 23.6823 19.4132 23.233 19.1691 C23.0682 18.8729 23.1394 18.5629 23.1845 18.2571 C24.3984 10.0478 18.143 2.87682 11.0685 1.65467 C7.88134 1.10428 4.77054 1.28961 1.81863 2.76035 C1.37466 2.98162 0.9307 3.2909 0.381916 3.06659 C0.144071 2.78742 0.0418345 2.45528 0 2.09932 Z" transform="translate(28.2192, 93.274)"/>
    <path style="fill:#f0504d; fill-rule:nonzero;stroke:none;" d="M0 2.30379 C1.77139 1.51765 3.50235 0.609443 5.47773 0.413142 C9.63016 0 13.4573 0.70841 16.8814 3.3021 C20.2251 5.83464 22.3864 9.01396 23.0376 13.1545 C23.3138 14.9102 23.6151 16.6802 22.851 18.4058 C22.6983 18.3893 22.5455 18.3724 22.3927 18.3559 C21.7177 18.0107 21.8945 17.3688 21.855 16.8095 C21.7438 15.233 21.9429 13.6678 21.5053 12.0735 C20.7659 9.37996 19.2333 7.26803 17.2863 5.36454 C15.389 3.50961 13.0253 2.61493 10.5247 1.87268 C7.33208 0.925018 4.46196 1.9455 1.55046 2.95968 C1.1575 3.09646 0.732104 3.57683 0.317284 2.97275 C0.211993 2.74961 0.105996 2.5267 0 2.30379 Z" transform="translate(28.6009, 94.0373)"/>
    <path style="fill:#aa2024; fill-rule:nonzero;stroke:none;" d="M0.658306 0.0630217 C2.95779 0.0693238 5.25775 0.114606 7.55653 0.0737587 C11.7005 0 15.7277 0.72825 19.7231 1.71256 C19.7894 3.28763 19.7675 3.39313 18.2927 3.0911 C16.0649 2.63477 13.8167 2.32316 11.582 1.92613 C10.4532 1.72539 9.3392 1.69155 8.21836 1.72796 C5.6949 1.81012 3.16039 1.46444 0.64679 1.92239 C0.280385 1.98915 0.0413645 1.84257 0 1.4502 C0.0914248 0.927819 0.334676 0.47663 0.658306 0.0630217 Z" transform="translate(30.3011, 57.2457)"/>
    <path style="fill:#ee333c; fill-rule:nonzero;stroke:none;" d="M28.0771 22.2873 C27.1297 21.8202 27.6028 20.9647 27.658 20.3406 C27.8517 18.1579 27.5943 16.0439 26.9334 13.9794 C25.8859 10.7074 24.1453 7.83849 21.4867 5.61966 C19.3743 3.85622 17.0661 2.42423 14.3288 1.68875 C12.8185 1.28331 11.2901 0.988506 9.76718 0.861763 C7.5429 0.676899 5.36657 1.256 3.25698 1.9546 C2.26823 2.28185 1.32484 2.74401 0.360999 3.14525 C0.240666 2.84811 0.120568 2.55098 0 2.25384 C2.03931 1.31692 4.10895 0.486434 6.37694 0.259556 C8.39369 0.0578866 10.3987 0 12.4147 0.316742 C15.7921 0.847291 18.7665 2.2382 21.4761 4.2731 C21.6705 4.41898 22.1563 5.29545 22.4562 4.26517 C23.2621 5.78095 23.7834 7.44496 25.0415 8.72687 C25.3541 9.04501 25.8702 9.17455 26.0086 9.66215 C27.3076 12.2507 28.2028 14.9613 28.5302 17.8456 C28.7025 19.3593 28.7351 20.8574 28.0771 22.2873 Z" transform="translate(27.1506, 90.3589)"/>
    <path style="fill:#f15e59; fill-rule:nonzero;stroke:none;" d="M20.4472 17.2371 C20.0314 17.2791 19.6429 17.189 19.2758 16.9972 C19.0305 16.3541 19.1992 15.6908 19.1985 15.04 C19.1926 9.65025 16.1145 5.10242 11.0274 3.34225 C8.32225 2.40649 5.52826 2.42307 2.77189 3.40247 C2.04072 3.66202 1.37866 4.3562 0.476866 3.93862 C0.213873 3.68093 0.0636919 3.36606 0 3.00777 C0.549959 2.24357 1.47478 2.15557 2.25131 1.85284 C7.00187 0 11.4138 0.888372 15.401 3.82588 C17.3813 5.28495 19.0135 7.13615 19.8712 9.54311 C20.7184 11.9214 21.1499 14.3295 20.6832 16.8438 C20.6538 17 20.5612 17.1267 20.4472 17.2371 Z" transform="translate(29.3749, 94.9347)"/>
    <path style="fill:#971d21; fill-rule:nonzero;stroke:none;" d="M16.9869 4.0726 C14.7354 3.33945 12.4169 2.91744 10.0678 2.68052 C7.01692 2.37265 3.95853 2.16118 0.88722 2.19059 C0.592264 2.19339 0.295662 2.03023 0 1.9441 C0.452189 1.20955 1.01249 0.565794 1.66468 0 C2.0278 0.598939 2.62476 0.598005 3.2128 0.567895 C6.88084 0.37883 10.4704 1.05713 14.0759 1.54123 C14.914 1.65373 15.7385 1.89182 16.5559 2.11939 C16.9698 2.2347 17.3195 2.17308 17.6716 1.97468 C17.6784 2.74961 17.0344 3.31517 16.9869 4.0726 Z" transform="translate(33.7773, 50.9213)"/>
    <path style="fill:#f05654; fill-rule:nonzero;stroke:none;" d="M20.9034 17.2941 C20.7896 15.9956 21.1445 14.7151 20.9274 13.3933 C20.4568 10.5321 19.6133 7.92065 17.4617 5.78282 C15.6898 4.02172 13.7819 2.64084 11.3522 1.90909 C8.41391 1.02422 5.54871 1.04383 2.72676 2.2172 C1.97727 2.52904 1.21179 2.77902 0.455949 3.06425 C0.201887 2.80283 0.0512355 2.49146 0 2.13223 C0.79039 2.322 1.37537 1.73613 2.02216 1.50482 C4.12728 0.752525 6.28951 0 8.47924 0.337749 C10.5627 0.659393 12.6082 1.31879 14.5422 2.37382 C17.7324 4.11345 19.7252 6.84158 21.1875 9.93105 C21.9138 11.4648 22.02 13.3242 21.867 15.1163 C21.7998 15.9048 21.6496 16.7481 22.0748 17.5154 C21.6613 17.5627 21.2738 17.4733 20.9034 17.2941 Z" transform="translate(28.9187, 94.8778)"/>
    <path style="fill:#be2329; fill-rule:nonzero;stroke:none;" d="M22.6945 2.27532 C22.977 2.60443 23.1286 2.98746 23.1695 3.41601 C23.3058 4.42295 22.5761 4.12488 22.126 4.02848 C20.7175 3.72691 19.3456 3.27199 17.9287 2.99703 C12.775 1.99732 7.5979 1.5564 2.36412 2.29749 C1.6071 2.40463 0.821883 2.63874 0.122213 2.08345 C0 1.44553 0.276625 0.90121 0.535623 0.352688 C3.5463 0.397036 6.54075 0 9.5573 0.089164 C14.0437 0.221743 18.4011 1.03939 22.6945 2.27532 Z" transform="translate(28.5577, 61.78)"/>
    <path style="fill:#b92227; fill-rule:nonzero;stroke:none;" d="M22.1589 3.28693 C21.2649 3.68467 20.3732 3.24025 19.6176 3.01244 C14.733 1.54006 9.73193 1.39395 4.70239 1.47354 C3.3437 1.49501 1.98338 1.62946 0.632923 1.78841 C0.200477 1.8393 0.0604015 1.73006 0 1.36477 C0.00681573 1.04499 0.0145716 0.725683 0.254532 0.471495 C0.406359 0.735953 0.611301 0.654258 0.858077 0.612477 C4.46971 0 8.12576 0.173893 11.7362 0.373228 C14.7763 0.541053 17.8274 1.10265 20.7652 2.04937 C21.054 2.14227 21.3795 2.12313 21.6881 2.15604 C21.9443 2.49216 22.0884 2.87449 22.1589 3.28693 Z" transform="translate(29.0933, 60.7684)"/>
    <path style="fill:#e92b37; fill-rule:nonzero;stroke:none;" d="M1.98267 9.42267 C1.65011 9.4054 1.31779 9.38813 0.985461 9.37015 C0.632923 8.99646 0.598844 8.5231 0.65337 8.06654 C0.940101 5.66588 0.662536 3.3112 0.126444 0.972401 C0.0484152 0.63185 0 0.283364 0.294252 0 C1.70816 0.481299 3.12208 0.962831 4.53622 1.44436 C4.08333 2.26691 4.09602 3.14735 4.24503 4.03222 C4.45161 5.25811 4.37782 6.4903 4.37547 7.72155 C4.37453 8.27661 4.26477 8.79549 3.80952 9.17852 C3.22737 9.45768 2.60291 9.42524 1.98267 9.42267 Z" transform="translate(57.5351, 103.255)"/>
    <path style="fill:#e32834; fill-rule:nonzero;stroke:none;" d="M0.0352538 7.73416 C0.394137 6.06595 0.335851 4.39401 0.121038 2.71273 C0.0340787 2.03186 0.0658071 1.33653 0.0286731 0.647956 C0 0.114606 0.324335 0.000466827 0.761952 0 C1.94765 0.150318 3.13359 0.300403 4.31929 0.450722 C3.52115 1.70042 4.19497 2.99119 4.24056 4.2577 C4.27276 5.1533 4.33927 6.01577 3.79354 6.79397 C2.59938 7.33852 1.338 7.61815 0.0352538 7.73416 Z" transform="translate(61.3094, 104.699)"/>
    <path style="fill:#c22328; fill-rule:nonzero;stroke:none;" d="M24.2713 4.62065 C23.518 4.80622 22.8987 4.34803 22.2569 4.13282 C19.6009 3.24305 16.872 2.68262 14.1088 2.32503 C9.74015 1.75947 5.36234 1.64837 1.00238 2.48189 C0.698965 2.53977 0.380036 2.5169 0.0686274 2.5316 C0.046065 2.4394 0.0230325 2.34721 0 2.25501 C0.0133964 2.11379 0.0267929 1.97234 0.0401893 1.83113 C0.241606 1.01442 0.934461 0.929453 1.59018 0.850792 C8.67173 0 15.6238 0.59077 22.4275 2.74891 C23.0149 2.93518 23.6508 3.08246 23.9815 3.7003 C23.9846 4.03619 24.029 4.35876 24.2713 4.62065 Z" transform="translate(28.412, 63.4295)"/>
    <path style="fill:#7c161a; fill-rule:nonzero;stroke:none;" d="M0.101531 7.367 C1.38218 5.26838 4.80838 1.62549 7.12808 0 C5.80465 3.22041 5.02085 6.30076 4.56184 9.45978 C4.32188 9.67172 4.05278 9.6178 3.80764 9.5018 C2.76813 9.01023 1.68842 8.60946 0.651255 8.11439 C0.345487 7.96804 0 7.82169 0.101531 7.367 Z" transform="translate(59.3598, 40.8654)"/>
    <path style="fill:#ed2a3b; fill-rule:nonzero;stroke:none;" d="M3.31268 1.62036 C3.78438 3.44892 3.95125 5.323 4.17992 7.1896 C4.33692 8.47221 3.79754 9.71257 4.00389 10.9903 C3.21985 10.9968 2.43557 11.004 1.65152 11.011 C1.24916 10.5571 1.27971 9.99523 1.30768 9.45862 C1.44893 6.75289 1.12037 4.11321 0.321985 1.51952 C0 0.473829 0.0578162 0.433682 0.571346 0 C1.48512 0.540119 2.3989 1.08 3.31268 1.62036 Z" transform="translate(54.5167, 101.635)"/>
    <path style="fill:#f0645f; fill-rule:nonzero;stroke:none;" d="M0 2.35911 C0.763127 2.08765 1.5366 1.84163 2.2875 1.54053 C6.12922 0 11.7031 0.928752 14.7963 3.83732 C17.8542 6.71251 19.2072 10.1724 19.0354 14.294 C19.019 14.688 19.0091 15.0701 18.7992 15.4177 C18.5346 15.4487 18.284 15.4251 18.0765 15.2342 C17.6419 14.6901 17.7345 14.038 17.7855 13.4362 C18.2076 8.45097 14.0989 2.97042 8.33893 2.09139 C5.61687 1.67591 3.04804 2.1418 0.679693 3.57613 C0.334441 3.23581 0.159112 2.80213 0 2.35911 Z" transform="translate(29.8517, 96.5138)"/>
    <path style="fill:#911b1f; fill-rule:nonzero;stroke:none;" d="M0.0857842 2.50873 C0.0347837 1.65747 0.449133 0.949059 0.798146 0.220809 C1.5876 0 2.21652 0.465893 2.89246 0.713312 C4.74775 1.39208 6.4122 2.52413 8.35891 2.98769 C8.75117 4.15266 9.14366 5.31763 9.53615 6.48259 C9.28726 7.31378 8.76832 6.79934 8.41438 6.65182 C7.12714 6.11613 5.98304 5.30152 4.67818 4.77751 C3.42032 4.2724 2.18785 3.70684 0.908373 3.24888 C0.565941 3.12634 0 3.14338 0.0857842 2.50873 Z" transform="translate(55.8208, 53.1308)"/>
    <path style="fill:#e42a33; fill-rule:nonzero;stroke:none;" d="M0.342667 7.16393 C0 5.12133 0.0712127 3.08503 0.493318 1.06483 C0.581453 0.642354 0.724818 0 1.34223 0.741088 C2.79868 2.48982 4.60039 3.83685 6.49234 5.07651 C6.54498 5.59072 6.15038 5.75061 5.7882 5.85681 C4.29626 6.294 2.81255 6.75475 1.34317 7.26149 C1.00262 7.3789 0.655721 7.40178 0.342667 7.16393 Z" transform="translate(25.696, 80.2908)"/>
    <path style="fill:#c12328; fill-rule:nonzero;stroke:none;" d="M23.9914 3.97667 C20.2756 2.58015 16.4515 1.72096 12.4827 1.3552 C11.1014 1.22799 9.70349 1.27024 8.31566 1.00251 C7.15511 0.778668 5.90948 1.09097 4.73529 1.24269 C3.50329 1.40188 2.24802 1.22822 1.03435 1.57321 C0.64585 1.68361 0.304828 1.79355 0.0502954 2.10772 C0 1.62176 0.0799086 1.1568 0.2778 0.710744 C3.56792 0.473363 6.85287 0 10.159 0.256988 C13.5074 0.517244 16.8657 0.754159 20.1015 1.78118 C20.9473 2.0496 21.8381 2.17635 22.6931 2.42026 C23.1018 2.53697 23.2842 2.45108 23.3251 2.04307 C23.6753 2.64411 23.9364 3.27526 23.9914 3.97667 Z" transform="translate(28.4018, 63.1531)"/>
    <path style="fill:#e12832; fill-rule:nonzero;stroke:none;" d="M0 0.539419 C1.32037 0 2.73616 0.14425 4.04196 0.33098 C6.63547 0.702808 9.25177 1.09097 11.7059 2.12196 C12.1811 2.32153 12.5889 2.60326 13.0258 2.85091 C10.1178 3.79507 7.26369 3.21154 4.4354 2.49006 C2.86026 2.08835 1.32437 1.53446 0 0.539419 Z" transform="translate(35.1734, 80.397)"/>
    <path style="fill:#e92b37; fill-rule:nonzero;stroke:none;" d="M0.0361939 2.08695 C2.11617 1.47891 4.23469 0.983138 6.18563 0 C7.51963 0.615278 8.85364 1.23032 10.1874 1.8456 C10.143 2.26201 9.84356 2.27391 9.51171 2.30916 C6.72501 2.60536 4.00295 3.16649 1.43412 4.32539 C1.07947 4.48551 0.742445 4.71822 0.355593 4.41035 C0.115397 3.65409 0 2.88102 0.0361939 2.08695 Z" transform="translate(26.0025, 85.3678)"/>
    <path style="fill:#f1756f; fill-rule:nonzero;stroke:none;" d="M15.7897 14.323 C15.29 14.2667 14.8073 14.1561 14.3763 13.8823 C14.0082 13.1118 14.29 12.2899 14.2085 11.4912 C13.8881 8.35644 12.2425 6.1096 9.53662 4.72756 C7.6355 3.75656 5.54824 3.26872 3.33501 3.9804 C2.47905 4.2556 1.64353 4.80855 0.658306 4.57164 C0.36711 4.29994 0.109287 4.00561 0 3.61114 C6.00819 0 13.8526 3.19823 15.5909 10.0776 C15.9401 11.4611 15.6268 12.9113 15.7897 14.323 Z" transform="translate(30.9751, 97.1426)"/>
    <path style="fill:#89191d; fill-rule:nonzero;stroke:none;" d="M7.56076 5.32113 C7.22679 5.80569 6.87614 5.47191 6.5377 5.33467 C4.34303 4.44373 2.26165 3.28996 0 2.55424 C0.235495 1.63109 0.648905 0.791038 1.20215 0.0161055 C2.69715 0.541286 4.15149 1.16403 5.60159 1.80055 C6.64558 2.25874 6.6719 2.21696 6.77719 1.12085 C6.81714 0.705843 6.63429 0.163389 7.27497 0 C7.29213 1.41682 7.34995 2.83504 7.3013 4.24953 C7.28696 4.6671 7.58474 4.9423 7.56076 5.32113 Z" transform="translate(56.619, 50.7972)"/>
    <path style="fill:#961e20; fill-rule:nonzero;stroke:none;" d="M0.267459 0 C1.45998 0.745289 2.85321 1.00788 4.12187 1.58208 C5.68385 2.28885 7.19036 3.09226 8.71356 3.86906 C9.00288 4.01658 9.33168 4.47524 9.71806 3.97387 C10.4142 5.00742 11.1104 6.04098 11.8067 7.07453 C11.3336 7.56026 11.0361 7.06519 10.7174 6.85816 C7.65313 4.86737 4.32846 3.39733 0.961253 2.01016 C0.674758 1.89205 0.406124 1.71372 0.0878995 1.90909 C0.0714477 1.66541 0.0547609 1.42196 0.0380741 1.17827 C0.0418345 0.771665 0 0.356189 0.267459 0 Z" transform="translate(55.6392, 55.6396)"/>
    <path style="fill:#f16d69; fill-rule:nonzero;stroke:none;" d="M15.9961 13.3267 C15.5587 12.4276 15.3521 11.5019 15.6555 10.5134 C15.8381 9.91867 15.6113 9.32604 15.4304 8.82186 C14.1758 5.3272 12.0192 2.85488 8.17959 1.82436 C5.57104 1.12459 3.28683 1.55477 0.963839 2.53557 C0.686274 2.65274 0.474046 2.71717 0.206352 2.61517 C0.13749 2.53604 0.0688624 2.45691 0 2.37778 C0.0864893 1.95274 0.408474 1.71069 0.753961 1.53866 C2.59139 0.625782 4.54586 0 6.59152 0.335882 C8.85575 0.70701 10.9743 1.4663 12.8458 2.96622 C14.5544 4.33542 15.3645 6.16912 16.2391 8.01449 C16.7782 9.15284 17.0429 10.3437 16.798 11.6205 C16.6736 12.2687 16.8692 12.9204 16.9362 13.5697 C16.5923 13.6057 16.2868 13.4943 15.9961 13.3267 Z" transform="translate(30.7688, 98.1388)"/>
    <path style="fill:#de2831; fill-rule:nonzero;stroke:none;" d="M0.520346 6.54328 C0.742445 4.85967 0.587093 3.19823 0.307883 1.53049 C0.218574 0.996909 0 0.199102 1.0461 0.200035 C2.20078 0.133279 3.35546 0.0665229 4.5099 0 C3.72468 0.707243 3.62621 1.47657 4.02081 2.48095 C4.30754 3.21107 4.11811 4.08054 4.19826 4.88418 C3.1202 5.76018 1.79559 6.09816 0.520346 6.54328 Z" transform="translate(64.5826, 104.95)"/>
    <path style="fill:#83181c; fill-rule:nonzero;stroke:none;" d="M6.07282 2.56498 C5.65753 3.16252 5.92522 3.83498 5.87634 4.47057 C5.83803 4.96564 5.61922 5.26558 5.1574 5.07044 C3.49177 4.36623 1.85059 3.60414 0.204942 2.85325 C0.113987 2.8117 0.0674523 2.67399 0 2.58085 C0.403068 1.63039 0.958433 0.775633 1.64024 0 C2.99093 0.983605 4.59944 1.42476 6.10055 2.09255 C6.09139 2.25011 6.08222 2.40766 6.07282 2.56498 Z" transform="translate(57.8209, 48.2322)"/>
    <path style="fill:#f06b64; fill-rule:nonzero;stroke:none;" d="M17.1738 13.9194 C16.4609 13.4108 16.6186 12.6316 16.7319 11.9982 C17.1296 9.77419 15.9091 8.07728 15.0898 6.20507 C14.4505 4.74436 13.321 3.79484 12.1501 2.93868 C11.1033 2.17378 9.83933 1.52022 8.53048 1.38391 C7.7006 1.29755 7.02138 0.790338 6.18352 0.847991 C4.04432 0.995976 2.01346 1.4586 0.237376 2.72837 C0.0105761 2.66698 0.0105761 2.48119 0 2.30169 C0.13796 1.67871 0.662771 1.49922 1.16808 1.29708 C4.40649 0.000466827 7.64584 0 10.817 1.45113 C14.3927 3.08783 17.4581 7.19217 17.4109 11.2783 C17.4006 12.172 17.401 13.066 17.3966 13.9598 L17.28 13.9686 L17.1738 13.9194 Z" transform="translate(30.5316, 97.7891)"/>
    <path style="fill:#f17c76; fill-rule:nonzero;stroke:none;" d="M0 1.43806 C1.6722 0.865964 3.30634 0 5.13436 0.256988 C6.8712 0.501839 8.64494 0.672931 10.0502 2.01249 C10.7343 2.66488 11.6152 3.08176 12.1811 3.92298 C13.5896 6.01647 14.228 8.24603 13.7182 10.7482 C13.4554 10.7555 13.203 10.7307 13.0105 10.5213 C12.7828 10.2753 12.7125 9.97586 12.7457 9.65702 C13.0608 6.61401 11.5656 4.35643 9.24331 2.75218 C6.9873 1.19414 4.38886 0.732452 1.72321 1.95554 C1.334 2.13457 0.954438 2.36891 0.50648 2.12453 C0.240431 1.96651 0.109757 1.70975 0 1.43806 Z" transform="translate(31.6332, 100.276)"/>
    <path style="fill:#d92831; fill-rule:nonzero;stroke:none;" d="M1.28841 5.34937 C0.896386 5.10615 0.891921 4.72219 0.892861 4.32375 C0.894741 3.55886 0.887926 2.83504 0.503424 2.08648 C0 1.10708 0.753021 0.691137 1.60005 0.465193 C2.30513 0.310207 3.01044 0.154987 3.71551 0 C3.88497 1.18527 4.25513 2.35584 3.98062 3.57379 C3.2692 4.44373 2.15918 4.71752 1.28841 5.34937 Z" transform="translate(67.4924, 104.484)"/>
    <path style="fill:#f0817d; fill-rule:nonzero;stroke:none;" d="M0 1.35076 C0.921064 0.996442 1.83884 0.633251 2.76437 0.2913 C3.55264 0 4.41989 0.0942991 5.16586 0.234114 C7.60777 0.691137 9.77846 1.78538 11.1818 3.90174 C12.1224 5.32043 12.8827 6.87683 12.5355 8.70259 C12.4714 9.04081 12.5118 9.39863 12.5041 9.74805 C12.4265 9.73241 12.3487 9.71654 12.2711 9.7009 C11.6996 9.43177 11.7748 8.88325 11.7123 8.40219 C11.3599 5.68759 10.1371 3.53598 7.65806 2.19292 C5.78891 0.982904 3.81446 1.00835 1.77938 1.68408 C1.31262 1.8393 0.846326 2.09769 0.342432 1.78725 C0.228445 1.64206 0.114222 1.49641 0 1.35076 Z" transform="translate(32.1397, 101.05)"/>
    <path style="fill:#ee303d; fill-rule:nonzero;stroke:none;" d="M2.43087 1.61429 C2.03461 1.90746 2.29432 2.30122 2.38739 2.56101 C3.56298 5.83184 3.6074 9.21937 3.51081 12.6253 C3.19752 12.6253 2.884 12.6253 2.57047 12.6256 C2.9686 10.0844 2.77847 7.57474 2.11993 5.09962 C1.74412 3.6877 1.25927 2.31173 0.607775 0.994342 C0.46441 0.704442 0 0.382798 0.502014 0 C1.14504 0.538252 1.78807 1.07627 2.43087 1.61429 Z" transform="translate(52.6572, 100.021)"/>
    <path style="fill:#d22730; fill-rule:nonzero;stroke:none;" d="M0.74127 5.01909 C0.568056 3.83405 0 2.67795 0.476161 1.4453 C1.46209 1.0807 2.44121 0.696506 3.43771 0.362958 C3.83162 0.231313 4.37288 0 4.65068 0.366226 C4.94446 0.753225 4.52518 1.16077 4.27041 1.49408 C3.25228 2.82407 2.11852 4.04249 0.74127 5.01909 Z" transform="translate(70.732, 103.039)"/>
    <path style="fill:#f38c8a; fill-rule:nonzero;stroke:none;" d="M10.5834 8.22806 C10.3303 8.19258 10.0671 8.18208 9.88798 7.95823 C9.67834 7.70848 9.60454 7.41251 9.59467 7.096 C9.47034 3.14361 5.08994 0.745289 1.81275 1.64487 C1.36268 1.76834 0.912368 1.9364 0.46159 1.64743 C0.307648 1.48988 0.153707 1.33256 0 1.1757 C1.47267 0.103402 3.12043 0 4.84552 0.302737 C5.34377 0.390267 5.82651 0.524013 6.29821 0.700941 C8.59229 1.80405 10.1585 3.51708 10.7298 6.02347 C10.8965 6.75335 11.1552 7.52852 10.5834 8.22806 Z" transform="translate(32.8732, 102.146)"/>
    <path style="fill:#e52c35; fill-rule:nonzero;stroke:none;" d="M0 0 C2.17351 1.99475 3.9771 4.24112 4.89511 7.09087 C2.29314 5.38788 0.608951 3.05982 0 0 Z" transform="translate(55.2408, 91.4083)"/>
    <path style="fill:#f29290; fill-rule:nonzero;stroke:none;" d="M0 0.753692 C1.54764 0.390267 3.06849 0 4.6911 0.505107 C7.45265 1.36407 9.85109 3.90337 9.42639 7.06496 C9.26423 6.9996 9.10229 6.93378 8.94013 6.86819 C8.51896 5.87805 8.334 4.81065 7.75936 3.86159 C6.69047 2.09652 5.14188 1.31365 3.11597 1.26557 C2.23039 1.24433 1.338 1.61149 0.459944 1.22542 C0.306708 1.06833 0.153236 0.911013 0 0.753692 Z" transform="translate(33.3348, 103.039)"/>
    <path style="fill:#f29797; fill-rule:nonzero;stroke:none;" d="M0 0.547355 C1.60052 0.425746 3.15521 0 4.7964 0.690437 C6.96921 1.60425 8.55751 3.76753 8.48042 6.18989 C8.23223 6.14251 7.9683 6.13177 7.79884 5.90139 C7.53186 5.64137 7.506 5.28145 7.39836 4.95397 C6.65333 2.69079 4.9031 0.773532 1.40851 1.29895 C1.17536 1.33396 0.944332 1.32976 0.719412 1.24736 C0.479687 1.01395 0.239961 0.780768 0 0.547355 Z" transform="translate(33.7947, 103.717)"/>
    <path style="fill:#f3a4a9; fill-rule:nonzero;stroke:none;" d="M5.64155 4.69581 C5.29018 4.60758 4.9642 4.47337 4.71343 4.19981 C3.70141 3.16415 2.66707 2.16234 1.16079 1.87058 C0.714477 1.62783 0.264403 1.38951 0 0.926185 C1.43788 0 3.77216 0.571863 5.01661 2.21369 C5.55999 2.93004 6.27682 3.66109 5.64155 4.69581 Z" transform="translate(34.9988, 104.491)"/>
    <path style="fill:#f19c9f; fill-rule:nonzero;stroke:none;" d="M6.12593 5.75644 C6.03521 3.21854 3.52984 1.32275 1.06208 1.91959 C0.875234 1.96441 0.677343 1.96511 0.484387 1.98682 C0.322925 1.83603 0.161462 1.68478 0 1.53376 C3.31668 0 7.13443 2.98302 7.0792 6.18756 C6.7189 6.13691 6.39034 6.01647 6.12593 5.75644 Z" transform="translate(34.5144, 103.431)"/>
    <path style="fill:#f28884; fill-rule:nonzero;stroke:none;" d="M4.21142 7.4802 C4.43728 4.12022 2.8337 1.80195 0 0.18393 C0.235025 0 0.470286 0.0324445 0.705546 0.183463 C3.4779 1.50388 4.55996 3.90314 4.92496 6.74495 C4.97408 7.12752 4.9454 7.51568 5.16586 7.85787 C4.8058 7.83639 4.49274 7.69774 4.21142 7.4802 Z" transform="translate(39.2452, 102.893)"/>
    <path style="fill:#f28783; fill-rule:nonzero;stroke:none;" d="M7.4684 1.21655 C7.23314 1.21678 6.99811 1.21678 6.76285 1.21702 C4.61026 0.558559 2.48539 0.619246 0.390847 1.46024 C0.164283 1.37621 0.074268 1.18294 0 0.977536 C1.05808 0.797341 2.01652 0.296202 3.11409 0.176227 C4.72941 0 6.18399 0.174827 7.4684 1.21655 Z" transform="translate(32.4824, 101.86)"/>
    <path style="fill:#f3afb5; fill-rule:nonzero;stroke:none;" d="M0 0.187198 C1.8245 0 2.76695 1.14023 3.55264 2.51643 C2.2546 1.91119 1.01578 1.21678 0 0.187198 Z" transform="translate(36.1596, 106.174)"/>
    <path style="fill:#7a1617; fill-rule:nonzero;stroke:none;" d="M0.019037 0 C0.37604 1.71302 0.411999 3.42488 0 5.1351 C0.00611066 3.42348 0.0126914 1.71185 0.019037 0 Z" transform="translate(45.5867, 30.0206)"/>
    <path style="fill:#ffffff; fill-rule:nonzero;stroke:none;" d="M5.07396 0 C6.78189 4.26166 8.35233 8.19492 9.93804 12.1228 C10.178 12.7166 9.98975 12.8438 9.39584 12.8387 C6.53746 12.8151 3.67862 12.8265 0.820238 12.8291 C0.392962 12.8296 0 12.8489 0.254062 12.2089 C1.82662 8.2465 3.38648 4.27894 5.07396 0 Z" transform="translate(351.23, 68.7415)"/>
    <path style="fill:#ffffff; fill-rule:nonzero;stroke:none;" d="M4.90521 9.57486 C3.57356 9.57486 2.24144 9.55035 0.910723 9.58583 C0.284851 9.60263 0 9.46585 0.0101061 8.75931 C0.0481802 6.15395 0.0319634 3.54765 0.0195071 0.94159 C0.0171568 0.446753 0.0857842 0.141215 0.710481 0.160589 C3.60435 0.249519 6.50668 0 9.39373 0.365059 C10.2111 0.468228 11.0036 0.671764 11.7656 0.994342 C13.3389 1.66027 14.326 2.76455 14.404 4.51609 C14.4851 6.33788 13.7871 7.77991 12.1569 8.69559 C11.006 9.34238 9.74156 9.57182 8.43012 9.57462 C7.255 9.57696 6.0801 9.57509 4.90521 9.57486 Z" transform="translate(120.866, 80.7626)"/>
    <path style="fill:#ffffff; fill-rule:nonzero;stroke:none;" d="M0.0643969 4.65893 C0.0643969 3.45429 0.0611066 2.24941 0.0665122 1.04476 C0.0679223 0.702808 0 0.301337 0.558655 0.323044 C3.36744 0.431582 6.20537 0 8.9829 0.621347 C11.9177 1.27794 13.2719 3.76613 12.176 6.35608 C11.4819 7.99558 10.0563 8.70983 8.40286 8.95724 C5.83826 9.34098 3.24687 9.04898 0.668882 9.13674 C0.0850792 9.15658 0.0599314 8.81369 0.0622817 8.39028 C0.0690974 7.14596 0.064632 5.90256 0.0643969 4.65893 Z" transform="translate(120.827, 64.0123)"/>
    <path style="fill:#ffffff; fill-rule:nonzero;stroke:none;" d="M0.0571111 4.96937 C0.0573462 3.64942 0.064867 2.32923 0.0531157 1.00928 C0.0488853 0.535684 0.083904 0.176461 0.722938 0.197234 C3.68849 0.293634 6.66461 0 9.62123 0.423179 C10.3959 0.53405 11.1531 0.727783 11.8685 1.05293 C13.3619 1.73193 14.3419 2.78019 14.4301 4.49928 C14.5264 6.37756 13.8235 7.82332 12.156 8.76678 C10.9663 9.43971 9.65131 9.64651 8.31849 9.66846 C5.89537 9.70907 3.47085 9.66075 1.04751 9.6925 C0.299657 9.7023 0 9.48359 0.0397193 8.69559 C0.102706 7.4564 0.0571111 6.21183 0.0571111 4.96937 Z" transform="translate(284.089, 80.7196)"/>
    <path style="fill:#ffffff; fill-rule:nonzero;stroke:none;" d="M0.0789685 4.62065 C0.0789685 3.45452 0.0752081 2.28769 0.0815538 1.12132 C0.083434 0.742722 0 0.287332 0.618352 0.309273 C3.39047 0.40754 6.18681 0 8.9319 0.583067 C11.9717 1.22892 13.3734 3.85552 12.1257 6.48143 C11.1531 8.52706 9.2238 8.99576 7.22938 9.11083 C5.12191 9.23221 3.00245 9.12297 0.888631 9.15144 C0.282735 9.15961 0.0514705 8.96985 0.0688624 8.35317 C0.103646 7.10978 0.0789685 5.86498 0.0789685 4.62065 Z" transform="translate(284.067, 64.0226)"/>
    <path style="fill:#fefefe; fill-rule:nonzero;stroke:none;" d="M10.0925 12.7873 C6.85968 12.7873 3.78837 12.7747 0.717532 12.7964 C0 12.8013 0.0810837 12.5119 0.27545 12.0206 C1.82779 8.09548 3.36368 4.1634 4.99593 0 C6.73183 4.35526 8.38617 8.50582 10.0925 12.7873 Z" transform="translate(161.778, 68.7637)"/>
   </g>
  </g>
 </g>
</svg>
